<?xml version="1.0" encoding="UTF-8"?>
<svg version="1.1" xmlns="http://www.w3.org/2000/svg" width="500" height="500">
<path d="M0 0 C165 0 330 0 500 0 C500 165 500 330 500 500 C335 500 170 500 0 500 C0 335 0 170 0 0 Z " fill="#FEFEFE" transform="translate(0,0)"/>
<path d="M0 0 C0.74813965 0.26248535 1.4962793 0.5249707 2.26708984 0.79541016 C32.37489135 11.49553551 56.80480828 28.20855187 80 50 C80.64710938 50.59296875 81.29421875 51.1859375 81.9609375 51.796875 C87.70050714 57.24003494 92.30571744 63.66459468 97 70 C97.62003906 70.825 98.24007813 71.65 98.87890625 72.5 C119.68778028 101.08202651 133.88268473 138.19155824 134.23828125 173.6875 C134.25310799 174.90480301 134.25310799 174.90480301 134.26823425 176.146698 C134.60047252 210.53100194 129.5111823 241.88515681 114 273 C113.49855469 274.00675781 112.99710937 275.01351563 112.48046875 276.05078125 C88.21883753 322.23476795 46.62270184 355.85341353 -2.921875 371.46484375 C-21.48108505 377.14190144 -39.32521349 379.36145637 -58.69970703 379.31567383 C-61.49681277 379.31250361 -64.29286682 379.3361147 -67.08984375 379.36132812 C-78.12035519 379.39988975 -88.24100241 378.47366878 -99 376 C-100.5372684 375.69025633 -102.07493128 375.38245154 -103.61328125 375.078125 C-138.56549532 367.25355332 -169.25961808 349.61516698 -195 325 C-195.92683594 324.12601562 -196.85367188 323.25203125 -197.80859375 322.3515625 C-211.0363727 309.55532812 -221.69950844 294.51419137 -230.6875 278.5 C-231.24244141 277.53191406 -231.79738281 276.56382812 -232.36914062 275.56640625 C-235.77764941 269.52755002 -238.62151776 263.51010945 -241 257 C-241.35795654 256.04013184 -241.71591309 255.08026367 -242.0847168 254.09130859 C-250.69235253 230.59774437 -254.32531573 208.91721732 -254.4375 184 C-254.44403595 183.13381042 -254.4505719 182.26762085 -254.45730591 181.37518311 C-254.51084389 169.58983674 -253.44072954 158.52611588 -251 147 C-250.7760128 145.91350159 -250.7760128 145.91350159 -250.54750061 144.80505371 C-245.27414576 119.23782851 -234.60766218 93.98108837 -219 73 C-218.57783203 72.42523926 -218.15566406 71.85047852 -217.72070312 71.25830078 C-186.59619525 29.21681326 -142.98183145 3.022155 -92 -7 C-90.10507812 -7.37318359 -90.10507812 -7.37318359 -88.171875 -7.75390625 C-59.20261138 -12.31624623 -27.56249278 -9.6958503 0 0 Z " fill="#3F5904" transform="translate(308,68)"/>
<path d="M0 0 C15.05037313 0 15.05037313 0 21.75 1.3125 C22.42675781 1.43044922 23.10351562 1.54839844 23.80078125 1.66992188 C28.24248561 2.49167932 32.43565112 3.72356124 36.70068359 5.20336914 C38.99654023 5.99880131 41.30482068 6.73906441 43.62109375 7.47265625 C60.19484062 12.87245682 74.82726127 20.88581827 89 31 C89.72703125 31.51433594 90.4540625 32.02867188 91.203125 32.55859375 C102.7545818 41.13662 113.4344979 51.45304429 122 63 C123.06734375 64.40185547 123.06734375 64.40185547 124.15625 65.83203125 C134.76645732 80.38370644 142.90725444 96.73520379 148 114 C148.22913086 114.77617676 148.45826172 115.55235352 148.69433594 116.35205078 C160.21542598 156.16452768 156.75764413 198.77180757 136.9375 235.51953125 C135.9784375 237.24236328 135.9784375 237.24236328 135 239 C134.401875 240.09699219 133.80375 241.19398438 133.1875 242.32421875 C129.61536258 248.67911501 125.60189028 254.3609222 121 260 C120.44183594 260.7425 119.88367188 261.485 119.30859375 262.25 C108.34703326 276.6444466 94.52164887 289.62229159 79 299 C78.34 299 77.68 299 77 299 C74.39231186 268.24800183 74.39231186 268.24800183 80.05859375 261.04296875 C83.13081362 258.03265064 86.57104368 255.60960315 90.17529297 253.27636719 C96.47988909 248.86635535 100.78036636 241.06410124 104.7734375 234.6171875 C105.17820312 234.08351563 105.58296875 233.54984375 106 233 C106.66 233 107.32 233 108 233 C108.09925781 232.46890625 108.19851563 231.9378125 108.30078125 231.390625 C109.2128259 228.27234943 110.67322125 225.62478968 112.1875 222.75 C120.05963607 207.23714187 123.36500037 192.44799822 127 175 C94 175 61 175 27 175 C27 222.85 27 270.7 27 320 C7 323 7 323 0 323 C0 216.41 0 109.82 0 0 Z " fill="#FCFCF9" transform="translate(255,92)"/>
<path d="M0 0 C0 29.7 0 59.4 0 90 C-8.91 90 -17.82 90 -27 90 C-27 70.53 -27 51.06 -27 31 C-37.86937259 34.23548609 -37.86937259 34.23548609 -47 39 C-48.59508278 39.64783225 -50.20029186 40.27104587 -51.8125 40.875 C-72.53037904 48.96155491 -91.90817813 67.72238751 -104 86 C-104.87141124 87.14856496 -105.74609879 88.29465632 -106.625 89.4375 C-109.83469114 93.91002044 -111.83308843 98.96759044 -114 104 C-114.30776367 104.6703125 -114.61552734 105.340625 -114.93261719 106.03125 C-124.70048103 127.41067362 -126.46660192 147.72130906 -126 171 C-125.97292969 172.93166016 -125.97292969 172.93166016 -125.9453125 174.90234375 C-124.53932097 207.03338554 -105.77530054 239.43721225 -82.97265625 261.26953125 C-66.77136545 275.48175268 -47.93809093 285.76547727 -27 291 C-27 252.72 -27 214.44 -27 175 C-43.5 175 -60 175 -77 175 C-77 166.09 -77 157.18 -77 148 C-51.59 148 -26.18 148 0 148 C0 205.75 0 263.5 0 323 C-22.19488805 323 -44.15498389 316.76279998 -64 307 C-64.63099609 306.69336426 -65.26199219 306.38672852 -65.91210938 306.07080078 C-82.09975754 298.11311136 -95.15228759 287.5763965 -108 275 C-108.5870874 274.43917725 -109.1741748 273.87835449 -109.77905273 273.30053711 C-114.05441267 269.15332629 -117.67350493 264.74011224 -121.1875 259.9375 C-121.69474609 259.25623047 -122.20199219 258.57496094 -122.72460938 257.87304688 C-131 246.69965953 -131 246.69965953 -131 244 C-131.66 244 -132.32 244 -133 244 C-133.23074219 243.46632813 -133.46148437 242.93265625 -133.69921875 242.3828125 C-135.48012654 238.31417731 -137.33058176 234.3182792 -139.375 230.375 C-145.08340615 218.97575202 -149.0236505 207.59742698 -151.56201172 195.12207031 C-151.98312577 193.08175632 -152.44403424 191.05385893 -152.91015625 189.0234375 C-157.24915432 168.98314982 -156.44241972 146.01089966 -152 126 C-151.34 126 -150.68 126 -150 126 C-149.89171875 124.86046875 -149.7834375 123.7209375 -149.671875 122.546875 C-149.08701901 117.8966564 -147.78405311 113.66547561 -146.25 109.25 C-145.97760498 108.45851563 -145.70520996 107.66703125 -145.42456055 106.8515625 C-144.62819558 104.56332341 -143.81641634 102.2811479 -143 100 C-142.63003906 98.94296875 -142.26007813 97.8859375 -141.87890625 96.796875 C-137.04593982 84.1214026 -129.075015 72.60000771 -121.125 61.6875 C-120.68526855 61.08381592 -120.24553711 60.48013184 -119.79248047 59.8581543 C-117.113422 56.26825668 -114.23523251 53.11443649 -111 50 C-110.38898438 49.36578125 -109.77796875 48.7315625 -109.1484375 48.078125 C-99.32133777 37.94798696 -87.6392492 27.8165668 -74.75390625 21.85546875 C-72.75036949 20.92845189 -72.75036949 20.92845189 -70.125 19.0625 C-58.35886588 11.29685148 -44.94697554 6.71144205 -31 5 C-31 4.34 -31 3.68 -31 3 C-30.01257813 2.86722656 -29.02515625 2.73445313 -28.0078125 2.59765625 C-26.72648438 2.42105469 -25.44515625 2.24445313 -24.125 2.0625 C-22.84882813 1.88847656 -21.57265625 1.71445313 -20.2578125 1.53515625 C-10.91240876 0 -10.91240876 0 0 0 Z " fill="#F0F1EF" transform="translate(241,92)"/>
<path d="M0 0 C7.78101788 1.41473052 13.25918293 2.54340541 20 6 C20.71333496 6.36254883 21.42666992 6.72509766 22.16162109 7.09863281 C34.77695428 13.67831664 47.7339494 20.9122597 57.50390625 31.4375 C59.03435956 33.03588466 60.64665296 34.37045769 62.375 35.75 C70.60109002 42.70344381 76.44489131 51.89023728 82 61 C82.66 61.99 83.32 62.98 84 64 C84 65.32 84 66.64 84 68 C84.66 68 85.32 68 86 68 C90.3107982 76.30275038 93.75315367 84.63429949 96.375 93.625 C96.62523926 94.45797607 96.87547852 95.29095215 97.13330078 96.14916992 C99.14019686 103.33229587 99.40236982 109.23080763 100 117 C67 117 34 117 0 117 C0 78.39 0 39.78 0 0 Z " fill="#405905" transform="translate(282,123)"/>
<path d="M0 0 C25.41 0 50.82 0 77 0 C77 57.75 77 115.5 77 175 C70.71367997 175 65.35444879 174.6216447 59.25 173.625 C58.41339844 173.49867188 57.57679688 173.37234375 56.71484375 173.2421875 C55.90660156 173.11328125 55.09835938 172.984375 54.265625 172.8515625 C53.17942871 172.67874756 53.17942871 172.67874756 52.07128906 172.50244141 C50 172 50 172 46 170 C49.3 170 52.6 170 56 170 C56 170.66 56 171.32 56 172 C62.27 172 68.54 172 75 172 C75.33 115.9 75.66 59.8 76 2 C51.25 1.67 26.5 1.34 1 1 C1 9.25 1 17.5 1 26 C17.5 26 34 26 51 26 C51.33 64.94 51.66 103.88 52 144 C50.68 143.67 49.36 143.34 48 143 C48.66 143 49.32 143 50 143 C50 104.72 50 66.44 50 27 C33.5 27 17 27 0 27 C0 18.09 0 9.18 0 0 Z " fill="#D8E2C8" transform="translate(164,240)"/>
<path d="M0 0 C0.33 0 0.66 0 1 0 C1 38.61 1 77.22 1 117 C34 117 67 117 101 117 C101 117.33 101 117.66 101 118 C88.80439565 119.72491758 76.88559746 120.28535895 64.578125 120.23046875 C62.77594028 120.22927253 60.97375492 120.22882472 59.17156982 120.2290802 C55.43367492 120.22753216 51.69587808 120.21936586 47.95800781 120.20581055 C43.17340144 120.18867429 38.38890062 120.18500139 33.60426712 120.18575573 C29.89995319 120.18548393 26.1956622 120.18000351 22.4913559 120.17275429 C20.72594119 120.16958203 18.96052391 120.1676036 17.19510651 120.16686058 C14.73842416 120.16469003 12.28185357 120.15593464 9.82519531 120.14526367 C9.1031189 120.14571686 8.38104248 120.14617004 7.63708496 120.14663696 C3.96762441 120.12335721 0.56893009 119.87127195 -3 119 C-2.505 118.01 -2.505 118.01 -2 117 C-1.34 117.33 -0.68 117.66 0 118 C0 79.06 0 40.12 0 0 Z " fill="#E9EED9" transform="translate(281,123)"/>
<path d="M0 0 C0.66 0 1.32 0 2 0 C3.12846411 3.38539234 3.10728865 5.9037871 3.08229065 9.47294617 C3.07744696 10.46296897 3.07744696 10.46296897 3.07250541 11.47299224 C3.06042368 13.68867774 3.04105226 15.90423974 3.02172852 18.11987305 C3.01158643 19.70649954 3.00189268 21.29312896 2.99261475 22.87976074 C2.96612674 27.19146921 2.93334863 31.50310986 2.89946485 35.81476569 C2.86512878 40.31909811 2.83654471 44.82346688 2.80735779 49.32783508 C2.75119763 57.85947341 2.68984356 66.39106621 2.62663645 74.92265493 C2.55493554 84.6347258 2.48900502 94.34683315 2.42356598 104.05894792 C2.28881088 124.03934598 2.14678721 144.01968695 2 164 C2.66 164.33 3.32 164.66 4 165 C3.67 167.97 3.34 170.94 3 174 C2.01 174.33 1.02 174.66 0 175 C0 117.25 0 59.5 0 0 Z " fill="#5E6F3D" transform="translate(241,240)"/>
<path d="M0 0 C33 0 66 0 100 0 C99.35179625 6.48203751 98.65152862 12.37905084 97.125 18.625 C96.96386719 19.32367188 96.80273438 20.02234375 96.63671875 20.7421875 C95.46030017 25.6667304 93.85290235 30.28833403 92 35 C90.84950592 31.54851775 91.18233609 30.89400468 92.4375 27.625 C93.89394229 23.52168999 94.67946111 20.34036605 93.4375 16.0625 C92.83301649 13.21279201 93.42201705 10.82569444 94 8 C94.99 8 95.98 8 97 8 C97.33 6.02 97.66 4.04 98 2 C65.99 1.67 33.98 1.34 1 1 C1 48.19 1 95.38 1 144 C0.67 144 0.34 144 0 144 C0 96.48 0 48.96 0 0 Z " fill="#62713D" transform="translate(282,267)"/>
<path d="M0 0 C0.66 0 1.32 0 2 0 C2 47.85 2 95.7 2 145 C0.02 145 -1.96 145 -4 145 C-4 144.34 -4 143.68 -4 143 C-3.01 142.67 -2.02 142.34 -1 142 C-0.67 95.14 -0.34 48.28 0 0 Z " fill="#E0E8D2" transform="translate(280,267)"/>
<path d="M0 0 C1.61455078 0.38091797 1.61455078 0.38091797 3.26171875 0.76953125 C6.30160541 1.486423 9.34206495 2.2008318 12.3828125 2.9140625 C15.17113267 3.56831164 17.95724303 4.22981826 20.7421875 4.8984375 C21.83789062 5.15882813 22.93359375 5.41921875 24.0625 5.6875 C25.02285156 5.91824219 25.98320312 6.14898437 26.97265625 6.38671875 C33.88164839 7.78634684 40.59888151 8.15876026 47.625 8.16796875 C48.53016357 8.17129715 49.43532715 8.17462555 50.36791992 8.17805481 C52.27733863 8.18309353 54.18676606 8.18546409 56.09619141 8.18530273 C58.96402199 8.18747278 61.83145685 8.20561594 64.69921875 8.22460938 C79.46592992 8.27104608 93.47842179 7.36163291 107.7421875 3.23632812 C111.15478491 2.30028167 113.63684379 1.66662746 117 3 C111.31107619 5.55348355 106.253672 7.33752092 100.01953125 7.78515625 C97.78255747 7.94620518 97.78255747 7.94620518 94.9375 9.0625 C92.21373173 9.93178775 90.60494493 10.07615759 87.8125 10 C83.92777341 9.64753425 83.92777341 9.64753425 81 12 C78.31405085 12.17162025 75.73455099 12.23224552 73.05078125 12.1953125 C71.89185616 12.19106766 71.89185616 12.19106766 70.70951843 12.18673706 C68.24368757 12.17554878 65.77822094 12.15044703 63.3125 12.125 C61.63997921 12.11496843 59.96745272 12.10584289 58.29492188 12.09765625 C54.19647441 12.07561392 50.09829894 12.04109363 46 12 C46 11.34 46 10.68 46 10 C45.030625 10.02320313 44.06125 10.04640625 43.0625 10.0703125 C17.46897316 10.48892831 17.46897316 10.48892831 10 6 C10 5.34 10 4.68 10 4 C6.7 3.34 3.4 2.68 0 2 C0 1.34 0 0.68 0 0 Z " fill="#F6FBE6" transform="translate(187,438)"/>
<path d="M0 0 C0 29.7 0 59.4 0 90 C-8.91 90 -17.82 90 -27 90 C-27 70.53 -27 51.06 -27 31 C-26.67 31 -26.34 31 -26 31 C-26 50.14 -26 69.28 -26 89 C-24.02 88.505 -24.02 88.505 -22 88 C-12.1 87.505 -12.1 87.505 -2 87 C-2 58.62 -2 30.24 -2 1 C-8.93 2.485 -8.93 2.485 -16 4 C-26.34883721 5.39534884 -26.34883721 5.39534884 -31 4 C-31 3.67 -31 3.34 -31 3 C-29.51886719 2.80083984 -29.51886719 2.80083984 -28.0078125 2.59765625 C-26.72648438 2.42105469 -25.44515625 2.24445313 -24.125 2.0625 C-22.21074219 1.80146484 -22.21074219 1.80146484 -20.2578125 1.53515625 C-10.91240876 0 -10.91240876 0 0 0 Z " fill="#D7E1C8" transform="translate(241,92)"/>
<path d="M0 0 C0.99 0.495 0.99 0.495 2 1 C1.67 2.65 1.34 4.3 1 6 C0.505 5.01 0.505 5.01 0 4 C-33 4 -66 4 -100 4 C-99.34 3.01 -98.68 2.02 -98 1 C-94.8573567 0.74388981 -91.91746966 0.68166236 -88.77685547 0.7512207 C-87.34264252 0.76519394 -87.34264252 0.76519394 -85.87945557 0.77944946 C-82.70834546 0.81391771 -79.53798482 0.86979534 -76.3671875 0.92578125 C-74.17287812 0.95380338 -71.97855138 0.98049494 -69.78421021 1.00590515 C-64.00042937 1.07647211 -58.21706158 1.16517306 -52.43359375 1.25756836 C-46.53529874 1.34861641 -40.63679316 1.42262895 -34.73828125 1.49804688 C-23.15858307 1.6486296 -11.57924968 1.8183578 0 2 C0 1.34 0 0.68 0 0 Z " fill="#D8DFC6" transform="translate(382,263)"/>
<path d="M0 0 C16.5 0 33 0 50 0 C50 38.28 50 76.56 50 116 C44.00237758 115.2502972 40.34799834 114.61012433 35 112.4375 C33.865625 111.98246094 32.73125 111.52742188 31.5625 111.05859375 C30.716875 110.70925781 29.87125 110.35992187 29 110 C32.74537155 108.59548567 34.87542347 109.45879227 38.5 110.9375 C42.10124236 112.39679464 44.03198475 113 48 113 C48 76.04 48 39.08 48 1 C32.16 1 16.32 1 0 1 C0 0.67 0 0.34 0 0 Z " fill="#4B5B24" transform="translate(164,267)"/>
<path d="M0 0 C5.94 0 11.88 0 18 0 C19.06851891 4.27407564 19.13293117 8.16837164 19.11352539 12.53222656 C19.11367142 13.39112488 19.11381744 14.25002319 19.1139679 15.13494873 C19.11327196 17.97019996 19.10549445 20.80538526 19.09765625 23.640625 C19.09579094 25.60788945 19.09436757 27.57515436 19.09336853 29.54241943 C19.08955227 34.71766444 19.07972956 39.89288133 19.06866455 45.06811523 C19.0584313 50.35009379 19.0538668 55.63207689 19.04882812 60.9140625 C19.03810651 71.27605401 19.02104075 81.63802467 19 92 C17.515 91.505 17.515 91.505 16 91 C16 61.3 16 31.6 16 1 C8.08 1.495 8.08 1.495 0 2 C0 1.34 0 0.68 0 0 Z " fill="#5C6E3A" transform="translate(225,91)"/>
<path d="M0 0 C3.68003322 5.52004983 4.58116505 12.57109443 6 19 C6.23203125 20.05058594 6.4640625 21.10117188 6.703125 22.18359375 C9.70978156 39.0423466 9.52760749 58.24386441 6 75 C5.67 75 5.34 75 5 75 C4.98969254 74.36550934 4.97938507 73.73101868 4.96876526 73.07730103 C4.86083865 66.49153038 4.74622965 59.90590041 4.62768555 53.3203125 C4.58429221 50.86038141 4.54262044 48.40041935 4.50268555 45.94042969 C4.44508943 42.41071216 4.38136443 38.88115124 4.31640625 35.3515625 C4.29969376 34.24632233 4.28298126 33.14108215 4.26576233 32.00234985 C4.24581711 30.98144257 4.22587189 29.96053528 4.20532227 28.90869141 C4.18977798 28.00712311 4.1742337 27.10555481 4.15821838 26.17666626 C4.13564908 23.95363699 4.13564908 23.95363699 3 22 C2.92966231 20.12620395 2.9156978 18.24998898 2.9375 16.375 C2.94652344 15.37210938 2.95554687 14.36921875 2.96484375 13.3359375 C2.98224609 12.17964844 2.98224609 12.17964844 3 11 C2.34 11 1.68 11 1 11 C0.67 7.37 0.34 3.74 0 0 Z " fill="#E0E7CC" transform="translate(402,206)"/>
<path d="M0 0 C0.66 0 1.32 0 2 0 C1.69073032 2.75039833 1.3777116 5.50028178 1.0625 8.25 C0.97548828 9.02730469 0.88847656 9.80460938 0.79882812 10.60546875 C0.71181641 11.35957031 0.62480469 12.11367187 0.53515625 12.890625 C0.456604 13.58188477 0.37805176 14.27314453 0.29711914 14.98535156 C0 17 0 17 -0.50849915 18.88015747 C-1.33500726 22.44488585 -1.18423973 26.08398721 -1.203125 29.7265625 C-1.20882507 30.58825043 -1.21452515 31.44993835 -1.22039795 32.33773804 C-1.22984329 34.16850564 -1.23638008 35.99929021 -1.24023438 37.83007812 C-1.24979641 40.56673294 -1.28076127 43.30258855 -1.3125 46.0390625 C-1.3680544 55.68693635 -0.88388237 64.86067315 1.03338623 74.33584595 C2.29964383 80.67761035 2.29964383 80.67761035 1 84 C-6.48603687 70.32984572 -4.09939162 51.15310929 -4.125 35.9375 C-4.1275882 35.21379211 -4.13017639 34.49008423 -4.13284302 33.7444458 C-4.138691 31.67202804 -4.13711908 29.59976265 -4.1328125 27.52734375 C-4.13168457 26.31812256 -4.13055664 25.10890137 -4.12939453 23.86303711 C-4 21 -4 21 -3 19 C-2.51129589 15.5179832 -2.10588064 12.04060819 -1.75 8.54296875 C-1.6675 7.74503906 -1.585 6.94710937 -1.5 6.125 C-1.4278125 5.38507813 -1.355625 4.64515625 -1.28125 3.8828125 C-1 2 -1 2 0 0 Z " fill="#F5F9E5" transform="translate(56,211)"/>
<path d="M0 0 C1.34575608 0.2789793 2.67793277 0.62446423 4 1 C6.20008438 1.08747283 8.40267347 1.11766415 10.60449219 1.11352539 C11.25856552 1.11367142 11.91263885 1.11381744 12.58653259 1.1139679 C14.74001426 1.11327341 16.89340852 1.10550283 19.046875 1.09765625 C20.54331414 1.09579042 22.03975388 1.09436729 23.53619385 1.09336853 C27.46858415 1.08955635 31.40093732 1.07973717 35.33331299 1.06866455 C39.34850563 1.05842249 43.3637043 1.05386492 47.37890625 1.04882812 C55.25262117 1.03811372 63.12630596 1.02105291 71 1 C71 1.66 71 2.32 71 3 C71.99 3.33 72.98 3.66 74 4 C48.59 4 23.18 4 -3 4 C-3 3.34 -3 2.68 -3 2 C-2.01 1.34 -1.02 0.68 0 0 Z " fill="#57672D" transform="translate(167,236)"/>
<path d="M0 0 C4.06558544 4.06558544 3.20226449 10.69367573 3.3515625 16.171875 C3.37471527 16.93550354 3.39786804 17.69913208 3.42172241 18.48590088 C3.46909226 20.0893363 3.51435649 21.69283517 3.55761719 23.29638672 C3.62517697 25.75644415 3.70283652 28.21604855 3.78125 30.67578125 C3.82612899 32.2369618 3.87042064 33.79815937 3.9140625 35.359375 C3.93796051 36.09581238 3.96185852 36.83224976 3.98648071 37.59100342 C4.11473966 42.77052069 4.11473966 42.77052069 3 45 C2.76010926 48.50507031 2.61712556 52.00915368 2.4765625 55.51953125 C1.9849647 59.10980698 1.08151018 61.078094 -1 64 C-2.17360537 60.51815638 -1.79982419 58.04832839 -1.07470703 54.47949219 C0.02727212 48.36402307 0.26009637 42.52879491 0.1953125 36.328125 C0.1924826 35.27969421 0.18965271 34.23126343 0.18673706 33.15106201 C0.17567322 29.85058455 0.15059568 26.55039339 0.125 23.25 C0.11495233 20.99219146 0.10582964 18.7343786 0.09765625 16.4765625 C0.07577936 10.98427974 0.04244283 5.49216033 0 0 Z " fill="#EBF0D8" transform="translate(441,225)"/>
<path d="M0 0 C0 0.33 0 0.66 0 1 C-4.62 1.33 -9.24 1.66 -14 2 C-14 2.66 -14 3.32 -14 4 C-15.26714844 4.31453125 -16.53429687 4.6290625 -17.83984375 4.953125 C-29.2927153 7.7594278 -29.2927153 7.7594278 -40.19921875 12.15234375 C-43.039872 13.48948422 -45.96379966 14.22479991 -49 15 C-48.4409112 11.75728494 -47.5867822 10.06942576 -45 8 C-44.34 8 -43.68 8 -43 8 C-43.33 7.01 -43.66 6.02 -44 5 C-42.68 5.66 -41.36 6.32 -40 7 C-40.33 7.33 -40.66 7.66 -41 8 C-37.81509993 8.2773501 -37.81509993 8.2773501 -35 6 C-30.04389654 4.47068807 -25.19338369 3.73367263 -20 4 C-20 3.34 -20 2.68 -20 2 C-13.24112575 -0.07965362 -7.04440079 -0.21133202 0 0 Z " fill="#435B0C" transform="translate(224,93)"/>
<path d="M0 0 C1.61455078 0.38091797 1.61455078 0.38091797 3.26171875 0.76953125 C6.30160541 1.486423 9.34206495 2.2008318 12.3828125 2.9140625 C15.17113267 3.56831164 17.95724303 4.22981826 20.7421875 4.8984375 C21.83789062 5.15882813 22.93359375 5.41921875 24.0625 5.6875 C25.02285156 5.91824219 25.98320312 6.14898437 26.97265625 6.38671875 C33.44793174 7.69848424 39.85116531 8.16443152 46.4375 8.31640625 C47.20304199 8.33718735 47.96858398 8.35796844 48.75732422 8.37937927 C51.1714698 8.44408136 53.58571181 8.50338541 56 8.5625 C57.64974903 8.60576095 59.29948878 8.64937748 60.94921875 8.69335938 C64.96605033 8.79967969 68.98297759 8.90116345 73 9 C73 9.33 73 9.66 73 10 C67.16912025 10.05010671 61.33837073 10.08604754 55.50732422 10.10986328 C53.53106498 10.11981036 51.55482002 10.13337281 49.57861328 10.15087891 C17.484085 10.42769625 17.484085 10.42769625 10 6 C10 5.34 10 4.68 10 4 C6.7 3.34 3.4 2.68 0 2 C0 1.34 0 0.68 0 0 Z " fill="#E5EED2" transform="translate(187,438)"/>
<path d="M0 0 C0.66 0 1.32 0 2 0 C6.05941167 9.70597312 10.03597965 19.41494304 13.0625 29.5 C13.27801514 30.19859131 13.49353027 30.89718262 13.71557617 31.61694336 C14.70355472 35.04585992 15.37289241 37.61525897 14 41 C14 40.34 14 39.68 14 39 C13.34 39 12.68 39 12 39 C11.35025795 36.31339217 10.70511582 33.62581326 10.0625 30.9375 C9.88009766 30.18533203 9.69769531 29.43316406 9.50976562 28.65820312 C8.42833845 24.11620899 7.58447189 19.63270877 7 15 C5.68 15 4.36 15 3 15 C2.67 14.01 2.34 13.02 2 12 C1.34 12 0.68 12 0 12 C-0.92844389 7.66726186 -0.92844389 4.33273814 0 0 Z " fill="#455B14" transform="translate(423,172)"/>
<path d="M0 0 C0.33 0.66 0.66 1.32 1 2 C0.05016642 3.50539661 -0.91011891 5.00420347 -1.875 6.5 C-2.40867187 7.3353125 -2.94234375 8.170625 -3.4921875 9.03125 C-3.98976563 9.6809375 -4.48734375 10.330625 -5 11 C-5.66 11 -6.32 11 -7 11 C-7.23533447 11.59232422 -7.47066895 12.18464844 -7.71313477 12.79492188 C-9.2827501 15.48449988 -11.0369269 16.52170743 -13.58984375 18.28125 C-16.71264399 20.97920925 -17.86788179 22.37847382 -18.73486328 26.45703125 C-18.88497384 30.50747207 -18.78891358 34.45778181 -18.5625 38.5 C-18.51728205 39.90872555 -18.47623022 41.31759132 -18.43945312 42.7265625 C-18.33379284 46.15465165 -18.18618347 49.57549729 -18 53 C-18.66 53 -19.32 53 -20 53 C-22.60730728 22.2524932 -22.60730728 22.2524932 -16.8359375 14.90234375 C-13.79951809 11.89661055 -10.43983271 9.52641855 -6.81884766 7.27587891 C-3.95628967 5.26786172 -2.09590843 2.77962225 0 0 Z " fill="#D1D8BA" transform="translate(352,338)"/>
<path d="M0 0 C1.21994269 3.65982807 0.49026663 4.58115302 -1 8 C-1 8.66 -1 9.32 -1 10 C-1.99 10.33 -2.98 10.66 -4 11 C-4.66 10.67 -5.32 10.34 -6 10 C-6.0825 10.53625 -6.165 11.0725 -6.25 11.625 C-7.28035701 14.88779721 -8.94539662 17.280672 -11 20 C-11.99 20.33 -12.98 20.66 -14 21 C-14.0825 21.721875 -14.165 22.44375 -14.25 23.1875 C-15.15713831 26.58926868 -16.60010879 28.45466084 -19 31 C-19.66 31 -20.32 31 -21 31 C-21 31.99 -21 32.98 -21 34 C-21.66 34 -22.32 34 -23 34 C-21.50997206 29.85417097 -19.44562167 26.2447973 -17.0625 22.5625 C-16.67642578 21.96284424 -16.29035156 21.36318848 -15.89257812 20.74536133 C-11.21177564 13.61195928 -6.04859204 6.04859204 0 0 Z " fill="#586A2F" transform="translate(101,126)"/>
<path d="M0 0 C-0.33 18.81 -0.66 37.62 -1 57 C-1.33 57 -1.66 57 -2 57 C-2.33 39.51 -2.66 22.02 -3 4 C-3.99 4 -4.98 4 -6 4 C-6.33 4.99 -6.66 5.98 -7 7 C-7.556875 6.835 -8.11375 6.67 -8.6875 6.5 C-11.18691249 5.95958649 -13.45045662 5.92917935 -16 6 C-13.50921074 2.98572283 -11.18094728 2.25459259 -7.4375 1.3125 C-6.46683594 1.06113281 -5.49617187 0.80976562 -4.49609375 0.55078125 C-2 0 -2 0 0 0 Z " fill="#445914" transform="translate(214,123)"/>
<path d="M0 0 C0.99 0.66 1.98 1.32 3 2 C3.2919398 4.97012854 3.395752 7.7282246 3.36328125 10.69921875 C3.36377975 11.56762894 3.36427826 12.43603912 3.36479187 13.33076477 C3.36244811 15.1726001 3.35270185 17.01443844 3.33618164 18.85620117 C3.31273848 21.65898765 3.31559979 24.46081325 3.32226562 27.26367188 C3.31668362 29.05469312 3.30957047 30.84571037 3.30078125 32.63671875 C3.30169266 33.46926682 3.30260406 34.30181488 3.30354309 35.15959167 C3.24373789 40.14029377 2.59083579 44.27420043 1 49 C-0.35237168 46.29525664 -0.07827596 44.23213023 -0.02734375 41.20703125 C-0.01396973 40.02560547 -0.0005957 38.84417969 0.01318359 37.62695312 C0.02945801 36.36818359 0.04573242 35.10941406 0.0625 33.8125 C0.14342523 24.56591248 -0.01920628 15.78835233 -1.7578125 6.6875 C-2.0244639 3.72852961 -1.5962459 2.45940109 0 0 Z " fill="#435613" transform="translate(409,220)"/>
<path d="M0 0 C0.78246094 0.19851563 1.56492188 0.39703125 2.37109375 0.6015625 C4.43877645 1.18037418 6.50197351 1.77127886 8.5625 2.375 C11.62811722 3.38481496 11.62811722 3.38481496 14.6875 3.25 C14.6875 3.58 14.6875 3.91 14.6875 4.25 C15.26757812 4.37117188 15.84765625 4.49234375 16.4453125 4.6171875 C20.96778442 5.58735474 25.32500966 6.68397783 29.6875 8.25 C29.6875 8.91 29.6875 9.57 29.6875 10.25 C22.54247071 9.65026179 15.9138683 8.18099195 9 6.3125 C7.49083008 5.91514648 7.49083008 5.91514648 5.95117188 5.50976562 C1.141768 4.23211911 -3.61635412 2.90605144 -8.3125 1.25 C-5.17005692 -0.65107166 -3.54050002 -0.93071759 0 0 Z " fill="#4A5E1D" transform="translate(191.3125,435.75)"/>
<path d="M0 0 C0.33 0.99 0.66 1.98 1 3 C0.34 3 -0.32 3 -1 3 C-1 3.66 -1 4.32 -1 5 C-1.66 5 -2.32 5 -3 5 C-3.2371875 5.58910156 -3.474375 6.17820313 -3.71875 6.78515625 C-5.68997039 10.1927232 -8.72566503 11.89571693 -11.90625 14.12109375 C-14.29757065 16.26703634 -14.96981016 17.99815497 -16 21 C-16.98020375 22.0194119 -17.97803008 23.02246356 -19 24 C-19.33 24.99 -19.66 25.98 -20 27 C-21.98 27.33 -23.96 27.66 -26 28 C-20.27250298 17.86948964 -9.74528976 6.49685984 0 0 Z " fill="#495D1F" transform="translate(164,148)"/>
<path d="M0 0 C0.99 0.33 1.98 0.66 3 1 C2.41992188 1.68964844 1.83984375 2.37929687 1.2421875 3.08984375 C-4.49451432 9.99092564 -10.09205268 16.87510488 -14 25 C-14.33 25 -14.66 25 -15 25 C-15.33 22.03 -15.66 19.06 -16 16 C-15.34 16 -14.68 16 -14 16 C-13.71125 15.195625 -13.4225 14.39125 -13.125 13.5625 C-12 11 -12 11 -10 10 C-9.67 10.33 -9.34 10.66 -9 11 C-8.34 9.68 -7.68 8.36 -7 7 C-6.01 7 -5.02 7 -4 7 C-3.896875 6.401875 -3.79375 5.80375 -3.6875 5.1875 C-2.91123545 2.71756736 -1.92911079 1.67748765 0 0 Z " fill="#EAECE2" transform="translate(144,164)"/>
<path d="M0 0 C1.26026798 2.52053595 0.91874445 3.8542098 0.5625 6.625 C0.46066406 7.44226563 0.35882813 8.25953125 0.25390625 9.1015625 C0.17011719 9.72804688 0.08632813 10.35453125 0 11 C-1.65 11.33 -3.3 11.66 -5 12 C-4.67 12.99 -4.34 13.98 -4 15 C-6.64 15.99 -9.28 16.98 -12 18 C-12 17.34 -12 16.68 -12 16 C-12.66 15.67 -13.32 15.34 -14 15 C-12.73542969 13.75283203 -12.73542969 13.75283203 -11.4453125 12.48046875 C-10.33840925 11.38294603 -9.2316457 10.28528241 -8.125 9.1875 C-7.56941406 8.64029297 -7.01382812 8.09308594 -6.44140625 7.52929688 C-5.90644531 6.99755859 -5.37148438 6.46582031 -4.8203125 5.91796875 C-4.32805176 5.43094482 -3.83579102 4.9439209 -3.32861328 4.44213867 C-1.77411511 2.82996499 -1.77411511 2.82996499 0 0 Z " fill="#3E5809" transform="translate(372,356)"/>
<path d="M0 0 C0.33 0 0.66 0 1 0 C1.83699502 5.8174063 2.14740205 11.44740226 2.1328125 17.3203125 C2.13376923 18.18260468 2.13472595 19.04489685 2.13571167 19.93331909 C2.13638795 21.74346999 2.13457247 23.55362339 2.13037109 25.36376953 C2.12500179 28.12407898 2.13034165 30.88422671 2.13671875 33.64453125 C2.13605813 35.41145869 2.13477729 37.17838603 2.1328125 38.9453125 C2.13483673 39.76419952 2.13686096 40.58308655 2.13894653 41.42678833 C2.1214344 45.72990437 1.85612389 49.76188916 1 54 C-1.61007735 50.08488397 -1.22006613 46.5480334 -1 42 C-0.67 41.34 -0.34 40.68 0 40 C0.08705146 37.01029711 0.11550145 34.04415045 0.09765625 31.0546875 C0.09553383 29.72716965 0.09553383 29.72716965 0.09336853 28.37283325 C0.0877614 25.54018809 0.07520771 22.70762136 0.0625 19.875 C0.05748592 17.95703239 0.05292285 16.03906354 0.04882812 14.12109375 C0.03778966 9.41403218 0.02052025 4.7070294 0 0 Z " fill="#526129" transform="translate(440,225)"/>
<path d="M0 0 C1.32 0.33 2.64 0.66 4 1 C-4.48066615 9.82396148 -13.06550825 17.83792455 -23 25 C-23.33 24.01 -23.66 23.02 -24 22 C-13.89320388 13 -13.89320388 13 -10 13 C-10 12.01 -10 11.02 -10 10 C-9.01 10 -8.02 10 -7 10 C-6.34 8.68 -5.68 7.36 -5 6 C-4.34 6 -3.68 6 -3 6 C-3 5.34 -3 4.68 -3 4 C-2.34 4 -1.68 4 -1 4 C-0.67 2.68 -0.34 1.36 0 0 Z " fill="#5B6C35" transform="translate(388,384)"/>
<path d="M0 0 C1.27914384 3.41105023 0.71878197 6.25986335 0.24465942 9.79711914 C-0.14144146 13.27352008 -0.12332965 16.72476287 -0.09765625 20.21875 C-0.0962413 20.96209595 -0.09482635 21.70544189 -0.09336853 22.47131348 C-0.08783109 24.81425229 -0.07529091 27.15709073 -0.0625 29.5 C-0.05747689 31.10156111 -0.05291542 32.70312373 -0.04882812 34.3046875 C-0.03788227 38.20316288 -0.02066196 42.1015645 0 46 C-0.33 46 -0.66 46 -1 46 C-4.99443115 15.87347956 -4.99443115 15.87347956 -2 2 C-1.34 2 -0.68 2 0 2 C0 1.34 0 0.68 0 0 Z " fill="#C3CDAE" transform="translate(115,225)"/>
<path d="M0 0 C0.66 0.33 1.32 0.66 2 1 C1.3503125 1.5878125 1.3503125 1.5878125 0.6875 2.1875 C-1.13512023 3.99104472 -1.13512023 3.99104472 -2.375 6.5625 C-4.31826866 9.47740299 -5.79368034 9.81872434 -9 11 C-9.33 11.99 -9.66 12.98 -10 14 C-10.33 14.33 -10.66 14.66 -11 15 C-10.67 15.66 -10.34 16.32 -10 17 C-10.99 17.33 -11.98 17.66 -13 18 C-13.33 18.66 -13.66 19.32 -14 20 C-14.66 20 -15.32 20 -16 20 C-15.67 21.65 -15.34 23.3 -15 25 C-15.598125 25.144375 -16.19625 25.28875 -16.8125 25.4375 C-18.56150404 25.8872439 -20.28677023 26.42892341 -22 27 C-19.28183009 19.39448026 -13.78489502 13.50270502 -8 8 C-6.55980554 6.56519952 -5.12248029 5.1275153 -3.6875 3.6875 C-1.84375 1.84375 -1.84375 1.84375 0 0 Z " fill="#D1D9BB" transform="translate(138,134)"/>
<path d="M0 0 C8.56409871 4.41180843 14.22550066 12.54564631 20 20 C19.01 20.33 18.02 20.66 17 21 C16.34 19.68 15.68 18.36 15 17 C14.34 17 13.68 17 13 17 C12.34 17.66 11.68 18.32 11 19 C10.82984375 18.38511719 10.6596875 17.77023438 10.484375 17.13671875 C8.69056025 11.0638035 8.69056025 11.0638035 4 7 C4 6.01 4 5.02 4 4 C3.01 4 2.02 4 1 4 C0.67 2.68 0.34 1.36 0 0 Z " fill="#E9EDDB" transform="translate(356,134)"/>
<path d="M0 0 C0.99 0 1.98 0 3 0 C2.82041748 0.52134521 2.64083496 1.04269043 2.45581055 1.57983398 C0.38168954 7.68975676 -1.43740637 13.85290851 -3.1875 20.0625 C-3.46013672 21.02349609 -3.73277344 21.98449219 -4.01367188 22.97460938 C-4.67761799 25.31589303 -5.33969291 27.65768796 -6 30 C-7.74627478 27.38058783 -8.38722388 25.96175123 -9 23 C-8.34 23 -7.68 23 -7 23 C-6.89042969 22.19175781 -6.78085938 21.38351563 -6.66796875 20.55078125 C-6.43013672 18.94783203 -6.43013672 18.94783203 -6.1875 17.3125 C-6.03667969 16.25675781 -5.88585937 15.20101562 -5.73046875 14.11328125 C-4.96935985 10.86941068 -3.97108221 8.67610405 -2 6 C-1.34 6 -0.68 6 0 6 C0 4.02 0 2.04 0 0 Z " fill="#62733A" transform="translate(97,188)"/>
<path d="M0 0 C0.66 0.33 1.32 0.66 2 1 C1.67 1.99 1.34 2.98 1 4 C0.34 4 -0.32 4 -1 4 C-1 4.66 -1 5.32 -1 6 C-1.99 5.67 -2.98 5.34 -4 5 C-5.65 7.64 -7.3 10.28 -9 13 C-9.66 12.67 -10.32 12.34 -11 12 C-11.33 12.33 -11.66 12.66 -12 13 C-14.9375 14.625 -14.9375 14.625 -18 16 C-18.66 15.67 -19.32 15.34 -20 15 C-6.74351585 3.62151777 -6.74351585 3.62151777 0 0 Z " fill="#DEE4CE" transform="translate(162,116)"/>
<path d="M0 0 C1.54047726 4.38290626 0.08888631 6.79876073 -1.81640625 10.8203125 C-3.26266039 13.48371121 -5.03103226 15.70287097 -7 18 C-7.350625 18.70125 -7.70125 19.4025 -8.0625 20.125 C-9.09548014 22.19096028 -10.34188053 23.41397268 -12 25 C-12.33 25.66 -12.66 26.32 -13 27 C-13.99 26.67 -14.98 26.34 -16 26 C-15.43152344 25.12859375 -14.86304688 24.2571875 -14.27734375 23.359375 C-9.29707708 15.6892664 -4.52748554 7.9485759 0 0 Z " fill="#E8EDD7" transform="translate(420,343)"/>
<path d="M0 0 C1.05960938 0.00676758 1.05960938 0.00676758 2.140625 0.01367188 C3.88545275 0.02546125 5.630237 0.04339676 7.375 0.0625 C7.375 2.0425 7.375 4.0225 7.375 6.0625 C6.715 5.7325 6.055 5.4025 5.375 5.0625 C5.375 3.7425 5.375 2.4225 5.375 1.0625 C4.03308594 1.36994141 4.03308594 1.36994141 2.6640625 1.68359375 C-16.97124796 6.05862561 -16.97124796 6.05862561 -23.625 4.0625 C-23.625 3.7325 -23.625 3.4025 -23.625 3.0625 C-22.14386719 2.86333984 -22.14386719 2.86333984 -20.6328125 2.66015625 C-19.35148438 2.48355469 -18.07015625 2.30695313 -16.75 2.125 C-14.83574219 1.86396484 -14.83574219 1.86396484 -12.8828125 1.59765625 C-2.94213994 -0.03528397 -2.94213994 -0.03528397 0 0 Z " fill="#C9D4B7" transform="translate(233.625,91.9375)"/>
<path d="M0 0 C2.91577627 2.91577627 3.56105977 6.51108535 4.6875 10.375 C4.92533203 11.14328125 5.16316406 11.9115625 5.40820312 12.703125 C5.62798828 13.44820312 5.84777344 14.19328125 6.07421875 14.9609375 C6.27619873 15.63946777 6.47817871 16.31799805 6.6862793 17.01708984 C7.28710321 20.81467103 6.10600618 22.84099073 4 26 C3.79503906 24.86820313 3.59007812 23.73640625 3.37890625 22.5703125 C3.10693028 21.08851239 2.83478613 19.60674315 2.5625 18.125 C2.42779297 17.37863281 2.29308594 16.63226563 2.15429688 15.86328125 C1.45463389 11.81466622 1.45463389 11.81466622 0 8 C-0.13415472 5.3276379 -0.04318541 2.67749512 0 0 Z " fill="#445817" transform="translate(373,204)"/>
<path d="M0 0 C3.465 1.98 3.465 1.98 7 4 C7 5.32 7 6.64 7 8 C8.33068931 9.0035157 9.66429584 10.00316893 11 11 C12.046875 13.48046875 12.046875 13.48046875 12.75 16.1875 C12.99234375 17.08855469 13.2346875 17.98960937 13.484375 18.91796875 C13.65453125 19.60503906 13.8246875 20.29210937 14 21 C13.34 21 12.68 21 12 21 C10.484375 18.91015625 10.484375 18.91015625 8.75 16.0625 C5.60200848 10.96763741 2.34722423 5.96566232 -1 1 C-0.67 0.67 -0.34 0.34 0 0 Z " fill="#495B18" transform="translate(374,149)"/>
<path d="M0 0 C0.66 0 1.32 0 2 0 C1.01391911 9.24595846 -0.17079464 18.0974338 -3 27 C-3.66 27 -4.32 27 -5 27 C-4.86722656 26.11699219 -4.73445313 25.23398437 -4.59765625 24.32421875 C-3.60615676 17.58636458 -2.74614256 10.90980921 -2.34375 4.109375 C-2 2 -2 2 0 0 Z " fill="#46581D" transform="translate(438,281)"/>
<path d="M0 0 C1.32 0 2.64 0 4 0 C4.26356761 6.11754286 3.44411807 11.04973426 1.625 16.875 C1.40328125 17.63296875 1.1815625 18.3909375 0.953125 19.171875 C-0.72735969 24.72735969 -0.72735969 24.72735969 -3 27 C-2.86722656 26.443125 -2.73445313 25.88625 -2.59765625 25.3125 C-0.18536821 15.69193186 -0.18536821 15.69193186 -1 6 C-0.72949547 3.99053778 -0.40632091 1.98645776 0 0 Z " fill="#526526" transform="translate(376,275)"/>
<path d="M0 0 C-5.69196202 2.55484725 -10.75232333 4.34641626 -16.9921875 4.78125 C-19.19804762 4.93306713 -19.19804762 4.93306713 -21.875 6.125 C-26.63474298 7.45772803 -31.14999453 6.63861282 -36 6 C-36 5.67 -36 5.34 -36 5 C-35.030625 4.90203125 -34.06125 4.8040625 -33.0625 4.703125 C-24.91162211 3.81399426 -17.12166918 2.49620398 -9.23046875 0.23339844 C-5.8274496 -0.7081967 -3.35375453 -1.3296451 0 0 Z " fill="#E2E9CE" transform="translate(304,441)"/>
<path d="M0 0 C2.70239953 2.70239953 3.4274359 5.81824127 4.5625 9.375 C4.78357422 10.04789062 5.00464844 10.72078125 5.23242188 11.4140625 C6.26558373 14.58533876 7.25765713 17.74703687 8 21 C7.01 21 6.02 21 5 21 C3.375 18.5625 3.375 18.5625 2 16 C1.67 15.67 1.34 15.34 1 15 C0.65458149 12.66842508 0.32205743 10.33491639 0 8 C-0.33 7.01 -0.66 6.02 -1 5 C-0.5625 2.3125 -0.5625 2.3125 0 0 Z " fill="#DBE3CA" transform="translate(118,289)"/>
<path d="M0 0 C0.33 0.99 0.66 1.98 1 3 C-0.43359375 5.84765625 -0.43359375 5.84765625 -2.4375 9.0625 C-5.04589734 12.77467457 -5.04589734 12.77467457 -6 17 C-6.66 17 -7.32 17 -8 17 C-8 16.34 -8 15.68 -8 15 C-9.32 15.99 -10.64 16.98 -12 18 C-12.66 17.67 -13.32 17.34 -14 17 C-13.40832031 16.35933594 -12.81664062 15.71867187 -12.20703125 15.05859375 C-7.79006952 10.22371395 -3.66053443 5.43176077 0 0 Z " fill="#EAF2E0" transform="translate(403,370)"/>
<path d="M0 0 C7.32627475 -0.47266289 12.37384327 0.90133798 19 4 C19.33 3.34 19.66 2.68 20 2 C20.66 2.66 21.32 3.32 22 4 C21.01 5.485 21.01 5.485 20 7 C13.14078075 5.38808348 6.53792711 3.64031672 0 1 C0 0.67 0 0.34 0 0 Z " fill="#5F6F34" transform="translate(294,98)"/>
<path d="M0 0 C1.38076179 3.83544942 0.85712183 7.07152497 0 11 C-0.50015625 11.474375 -1.0003125 11.94875 -1.515625 12.4375 C-3.44294204 14.46625478 -3.38843958 15.68102791 -3.5 18.4375 C-3.79889555 22.20114397 -4.31326211 24.2057926 -7 27 C-7.66 27.99 -8.32 28.98 -9 30 C-8.37641443 23.73816161 -6.5397388 18.12240265 -4.5 12.1875 C-4.17902344 11.23423828 -3.85804687 10.28097656 -3.52734375 9.29882812 C-1.16976305 2.3395261 -1.16976305 2.3395261 0 0 Z " fill="#667741" transform="translate(68,179)"/>
<path d="M0 0 C2.31 0 4.62 0 7 0 C7 0.66 7 1.32 7 2 C8.0828125 1.7215625 8.0828125 1.7215625 9.1875 1.4375 C12.12826973 0.98004693 14.14103058 1.26483643 17 2 C17 1.34 17 0.68 17 0 C17.66 0 18.32 0 19 0 C18.67 1.32 18.34 2.64 18 4 C19.98 4.99 21.96 5.98 24 7 C24 7.66 24 8.32 24 9 C16 6.33333333 8 3.66666667 0 1 C0 0.67 0 0.34 0 0 Z " fill="#E9EEDC" transform="translate(302,66)"/>
<path d="M0 0 C0.66 0 1.32 0 2 0 C2 8.91 2 17.82 2 27 C1.34 27 0.68 27 0 27 C-0.19622046 22.87536584 -0.38050216 18.75028427 -0.5625 14.625 C-0.61857422 13.449375 -0.67464844 12.27375 -0.73242188 11.0625 C-0.78076172 9.94101563 -0.82910156 8.81953125 -0.87890625 7.6640625 C-0.9260376 6.62717285 -0.97316895 5.5902832 -1.02172852 4.52197266 C-1 2 -1 2 0 0 Z " fill="#4F6023" transform="translate(162,240)"/>
<path d="M0 0 C0 0.99 0 1.98 0 3 C-6.77110927 7.0941591 -12.50529756 5.56656186 -20 4 C-20 3.67 -20 3.34 -20 3 C-13.4 2.01 -6.8 1.02 0 0 Z " fill="#475C1A" transform="translate(282,411)"/>
<path d="M0 0 C5.65596939 4.24197704 9.71924631 9.4045986 14 15 C13.01 15.33 12.02 15.66 11 16 C10.34 15.01 9.68 14.02 9 13 C8.34 13 7.68 13 7 13 C7 12.01 7 11.02 7 10 C6.401875 9.979375 5.80375 9.95875 5.1875 9.9375 C3 9 3 9 1.25 5.5625 C0 2 0 2 0 0 Z " fill="#596B2F" transform="translate(342,157)"/>
<path d="M0 0 C0.66 0.33 1.32 0.66 2 1 C1.34 2.32 0.68 3.64 0 5 C-0.66 5 -1.32 5 -2 5 C-2.33 5.99 -2.66 6.98 -3 8 C-4.48828125 9.421875 -4.48828125 9.421875 -6.3125 10.75 C-6.90675781 11.19859375 -7.50101562 11.6471875 -8.11328125 12.109375 C-10 13 -10 13 -12.23046875 12.640625 C-12.81441406 12.42921875 -13.39835937 12.2178125 -14 12 C-12.41856529 10.56041153 -10.83477221 9.12341355 -9.25 7.6875 C-8.36828125 6.88699219 -7.4865625 6.08648437 -6.578125 5.26171875 C-4.44550672 3.39083089 -2.29812057 1.65915714 0 0 Z " fill="#536325" transform="translate(133,96)"/>
<path d="M0 0 C0.33 0 0.66 0 1 0 C1.25 2.75 1.25 2.75 1 6 C-0.875 8.125 -0.875 8.125 -3 10 C-3.33 10.66 -3.66 11.32 -4 12 C-5.25212236 14.50424471 -6.96620078 16.1017874 -9 18 C-9.99 17.67 -10.98 17.34 -12 17 C-11.07767578 15.78763672 -11.07767578 15.78763672 -10.13671875 14.55078125 C-9.32018287 13.47145222 -8.50378389 12.39201962 -7.6875 11.3125 C-7.28337891 10.78205078 -6.87925781 10.25160156 -6.46289062 9.70507812 C-4.59638671 7.23158107 -2.86043934 4.7665588 -1.26953125 2.10546875 C-0.85058594 1.41066406 -0.43164062 0.71585937 0 0 Z " fill="#516427" transform="translate(385,338)"/>
<path d="M0 0 C0.66 0 1.32 0 2 0 C0.63336507 4.0999048 -1.18373525 4.09186762 -5 6 C-6.12309055 7.02123508 -7.22654615 8.06435976 -8.3125 9.125 C-12.1924473 12.6395711 -15.89695518 12.97685694 -21 13 C-17.23322073 9.93516647 -13.04918545 7.70988443 -8.8125 5.375 C-4.12374234 3.0611993 -4.12374234 3.0611993 0 0 Z " fill="#ECF1D9" transform="translate(355,415)"/>
<path d="M0 0 C0.66 0.99 1.32 1.98 2 3 C-0.97 6.3 -3.94 9.6 -7 13 C-7.99 12.67 -8.98 12.34 -10 12 C-8.68 10.02 -7.36 8.04 -6 6 C-6.66 5.67 -7.32 5.34 -8 5 C-7 3 -7 3 -5.125 2.3125 C-3 2 -3 2 0 3 C0 2.01 0 1.02 0 0 Z " fill="#485F19" transform="translate(399,371)"/>
<path d="M0 0 C0.66 0.33 1.32 0.66 2 1 C1.49884623 4.70853792 0.99569392 6.68753452 -2 9 C-4.48046875 9.51171875 -4.48046875 9.51171875 -7.1875 9.6875 C-8.08855469 9.75324219 -8.98960937 9.81898438 -9.91796875 9.88671875 C-10.94857422 9.94279297 -10.94857422 9.94279297 -12 10 C-8.29909479 6.0747975 -4.45040344 3.05419844 0 0 Z " fill="#526421" transform="translate(178,137)"/>
<path d="M0 0 C2.70451512 4.05677268 3.79111458 8.29492916 5.1875 12.9375 C5.61579102 14.2977832 5.61579102 14.2977832 6.05273438 15.68554688 C6.31763672 16.56146484 6.58253906 17.43738281 6.85546875 18.33984375 C7.09934326 19.13769287 7.34321777 19.93554199 7.59448242 20.75756836 C8.03454734 23.19103991 7.77739889 24.67577323 7 27 C7 26.34 7 25.68 7 25 C6.34 25 5.68 25 5 25 C4.3487817 22.33454836 3.70392839 19.66780944 3.0625 17 C2.88009766 16.25621094 2.69769531 15.51242188 2.50976562 14.74609375 C1.33622791 9.8385724 0.54165676 5.01745212 0 0 Z " fill="#57682F" transform="translate(430,186)"/>
<path d="M0 0 C0.99 0.33 1.98 0.66 3 1 C-1.44185858 6.19791962 -5.9197579 11.40769075 -11 16 C-11.33 16 -11.66 16 -12 16 C-12 14.35 -12 12.7 -12 11 C-10.35 10.67 -8.7 10.34 -7 10 C-7 9.01 -7 8.02 -7 7 C-6.01 7 -5.02 7 -4 7 C-4 5.68 -4 4.36 -4 3 C-2.68 3 -1.36 3 0 3 C0 2.01 0 1.02 0 0 Z " fill="#E4ECD1" transform="translate(369,356)"/>
<path d="M0 0 C2.2559656 3.3839484 3.1110275 6.61105927 4.0625 10.5 C4.2387793 11.20962891 4.41505859 11.91925781 4.59667969 12.65039062 C5.9710459 18.40246397 6.74937204 24.08518016 7 30 C3.83351995 26.83351995 3.07068743 23.60593007 2.875 19.16015625 C2.875 16.43721157 2.91283601 13.72145344 3 11 C2.34 11 1.68 11 1 11 C0.67 7.37 0.34 3.74 0 0 Z " fill="#D8E0C0" transform="translate(402,206)"/>
<path d="M0 0 C3.5 0.3125 3.5 0.3125 7 1 C7.33 1.66 7.66 2.32 8 3 C9.98 2.67 11.96 2.34 14 2 C14.33 2.99 14.66 3.98 15 5 C15.66 5.66 16.32 6.32 17 7 C11.985908 6.48130083 7.78927625 5.59642542 3 4 C0.33574651 3.56403125 -2.31248476 3.27801882 -5 3 C-4.360625 2.690625 -3.72125 2.38125 -3.0625 2.0625 C-1.06389179 1.1654837 -1.06389179 1.1654837 0 0 Z " fill="#EEF3DF" transform="translate(285,59)"/>
<path d="M0 0 C3.3 0 6.6 0 10 0 C10 0.66 10 1.32 10 2 C11.18078125 1.98839844 12.3615625 1.97679687 13.578125 1.96484375 C15.13541508 1.95546248 16.69270688 1.94636264 18.25 1.9375 C19.02730469 1.92912109 19.80460937 1.92074219 20.60546875 1.91210938 C21.73662109 1.90727539 21.73662109 1.90727539 22.890625 1.90234375 C23.92751465 1.89448853 23.92751465 1.89448853 24.98535156 1.88647461 C27.09973898 2.00562029 28.96641515 2.42381763 31 3 C31 3.66 31 4.32 31 5 C24.92546249 5.15396293 19.24087634 4.60310226 13.25 3.625 C12.41339844 3.49867188 11.57679688 3.37234375 10.71484375 3.2421875 C9.90660156 3.11328125 9.09835938 2.984375 8.265625 2.8515625 C7.54149414 2.73635254 6.81736328 2.62114258 6.07128906 2.50244141 C4 2 4 2 0 0 Z " fill="#CFD8B8" transform="translate(210,410)"/>
<path d="M0 0 C0.99 0 1.98 0 3 0 C1.23465356 4.84015316 -1.19536725 9.2835127 -3.625 13.8125 C-4.04523438 14.60076172 -4.46546875 15.38902344 -4.8984375 16.20117188 C-5.9300009 18.13535326 -6.96391172 20.06823983 -8 22 C-8.33 22 -8.66 22 -9 22 C-9.08886184 18.80097361 -8.91058531 16.07322544 -8 13 C-7.01 13 -6.02 13 -5 13 C-5 11.68 -5 10.36 -5 9 C-4.34 9 -3.68 9 -3 9 C-2.87625 8.071875 -2.7525 7.14375 -2.625 6.1875 C-2 3 -2 3 0 0 Z " fill="#EBF0DD" transform="translate(80,150)"/>
<path d="M0 0 C0.33 0 0.66 0 1 0 C1.31420773 5.96994679 0.59503404 9.49852783 -2 15 C-2.144375 15.928125 -2.28875 16.85625 -2.4375 17.8125 C-2.623125 18.534375 -2.80875 19.25625 -3 20 C-5.03515625 21.13671875 -5.03515625 21.13671875 -7 22 C-6.5875 20.783125 -6.175 19.56625 -5.75 18.3125 C-3.72341064 12.24242851 -1.86391367 6.12158449 0 0 Z " fill="#E6EAD5" transform="translate(378,287)"/>
<path d="M0 0 C0.33 0 0.66 0 1 0 C2.44576815 8.24087846 1.30168453 15.83488792 0 24 C-0.33 24 -0.66 24 -1 24 C-2.51708428 7.1070615 -2.51708428 7.1070615 0 0 Z " fill="#5A6B30" transform="translate(58,211)"/>
<path d="M0 0 C1.25541557 3.76624671 0.37061958 5.37188934 -1 9 C-1.66 9 -2.32 9 -3 9 C-3.2475 9.969375 -3.495 10.93875 -3.75 11.9375 C-4.1625 12.948125 -4.575 13.95875 -5 15 C-7.125 15.875 -7.125 15.875 -9 16 C-7.51637716 9.73581469 -3.75837844 5.08486495 0 0 Z " fill="#E0E6D5" transform="translate(115,161)"/>
<path d="M0 0 C1.17791932 3.53375797 0.75415072 4.44851107 -0.43359375 7.88671875 C-0.9121582 9.2934082 -0.9121582 9.2934082 -1.40039062 10.72851562 C-1.74263672 11.70498047 -2.08488281 12.68144531 -2.4375 13.6875 C-2.77587891 14.67556641 -3.11425781 15.66363281 -3.46289062 16.68164062 C-4.30059974 19.12397565 -5.14657083 21.56312271 -6 24 C-7.71166934 18.10568 -6.19485589 12.60907616 -4 7 C-3.0398183 5.31008021 -2.04644066 3.63790712 -1 2 C-0.67 1.34 -0.34 0.68 0 0 Z " fill="#E9EFD9" transform="translate(404,291)"/>
<path d="M0 0 C0.33 0 0.66 0 1 0 C1.07654536 4.51617599 1.10228696 8.59085217 0 13 C0.66 13.33 1.32 13.66 2 14 C1.01 15.485 1.01 15.485 0 17 C-0.70812814 19.32108669 -1.38024152 21.65377147 -2 24 C-2.33 24 -2.66 24 -3 24 C-2.22095672 7.1070615 -2.22095672 7.1070615 0 0 Z " fill="#57682E" transform="translate(117,221)"/>
<path d="M0 0 C0 0.33 0 0.66 0 1 C-4.29 1.66 -8.58 2.32 -13 3 C-13 3.66 -13 4.32 -13 5 C-17.29 5 -21.58 5 -26 5 C-19.03675063 0.35783375 -8.25004758 -0.50510495 0 0 Z " fill="#64723B" transform="translate(224,61)"/>
<path d="M0 0 C5 5 10 10 15 15 C14.01 15.66 13.02 16.32 12 17 C9 13.25 9 13.25 9 11 C7.68 11 6.36 11 5 11 C5 9.68 5 8.36 5 7 C4.01 7 3.02 7 2 7 C1.34 4.69 0.68 2.38 0 0 Z " fill="#506627" transform="translate(124,357)"/>
<path d="M0 0 C4.91935902 4.11619836 9.52647956 8.40410362 14 13 C11.50907189 14.24546405 10.58919267 13.7767578 8 13 C7.67 11.68 7.34 10.36 7 9 C6.34 9 5.68 9 5 9 C4.67 8.01 4.34 7.02 4 6 C1.98491642 5.26676204 1.98491642 5.26676204 0 5 C0 3.35 0 1.7 0 0 Z " fill="#DDE4C8" transform="translate(103,383)"/>
<path d="M0 0 C0.99 0.66 1.98 1.32 3 2 C-7.37357631 12.74259681 -7.37357631 12.74259681 -13 16 C-12.67 14.35 -12.34 12.7 -12 11 C-10.68 11 -9.36 11 -8 11 C-8 10.01 -8 9.02 -8 8 C-7.01 8 -6.02 8 -5 8 C-4.67 6.68 -4.34 5.36 -4 4 C-2.68 3.67 -1.36 3.34 0 3 C0 2.01 0 1.02 0 0 Z " fill="#57692E" transform="translate(345,342)"/>
<path d="M0 0 C2.4375 0.625 2.4375 0.625 5 2 C6.550902 6.54931253 5.77013741 9.62671934 4 14 C2.09610151 11.14415227 1.30537823 9.0688238 0.375 5.8125 C-0.01558594 4.46091797 -0.01558594 4.46091797 -0.4140625 3.08203125 C-0.60742188 2.39496094 -0.80078125 1.70789063 -1 1 C-0.67 0.67 -0.34 0.34 0 0 Z " fill="#EDF2E6" transform="translate(430,181)"/>
<path d="M0 0 C1.0828125 0.804375 1.0828125 0.804375 2.1875 1.625 C4.93706631 3.35911051 4.93706631 3.35911051 7.8125 2.1875 C8.534375 1.795625 9.25625 1.40375 10 1 C9.67 2.65 9.34 4.3 9 6 C9.66 6.33 10.32 6.66 11 7 C11 7.66 11 8.32 11 9 C5.68972746 7.53967505 1.53669968 5.01679014 -3 2 C-2.01 1.34 -1.02 0.68 0 0 Z " fill="#576A2C" transform="translate(178,365)"/>
<path d="M0 0 C1.32 0.33 2.64 0.66 4 1 C-2.93 7.435 -2.93 7.435 -10 14 C-10.33 12.68 -10.66 11.36 -11 10 C-10.21625 9.7525 -9.4325 9.505 -8.625 9.25 C-5.67682892 7.84610901 -5.0975223 6.99324263 -4 4 C-3.34 4 -2.68 4 -2 4 C-2 3.34 -2 2.68 -2 2 C-1.34 1.34 -0.68 0.68 0 0 Z " fill="#E7EED6" transform="translate(118,105)"/>
<path d="M0 0 C0.66 0 1.32 0 2 0 C0.40376856 4.39383706 -1.78024333 8.28995807 -4.125 12.3125 C-4.49753906 12.95767578 -4.87007813 13.60285156 -5.25390625 14.26757812 C-6.16632213 15.84675945 -7.08275509 17.42361864 -8 19 C-9.1171875 15.28125 -9.1171875 15.28125 -8.0625 12.75 C-7.711875 12.1725 -7.36125 11.595 -7 11 C-6.34 11 -5.68 11 -5 11 C-5 9.35 -5 7.7 -5 6 C-4.34 6 -3.68 6 -3 6 C-2.67 5.01 -2.34 4.02 -2 3 C-1.34 3 -0.68 3 0 3 C0 2.01 0 1.02 0 0 Z " fill="#4F6327" transform="translate(111,163)"/>
<path d="M0 0 C0 0.33 0 0.66 0 1 C-4.62 1.33 -9.24 1.66 -14 2 C-14 2.66 -14 3.32 -14 4 C-20.28571429 6.42857143 -20.28571429 6.42857143 -24 5 C-23.01 4.67 -22.02 4.34 -21 4 C-20.566875 3.505 -20.13375 3.01 -19.6875 2.5 C-14.91755634 -1.73994992 -6.00227651 -0.08741179 0 0 Z " fill="#64753F" transform="translate(224,93)"/>
<path d="M0 0 C0.99 0.33 1.98 0.66 3 1 C2.38511719 1.74765625 1.77023438 2.4953125 1.13671875 3.265625 C0.32847656 4.25046875 -0.47976562 5.2353125 -1.3125 6.25 C-2.11300781 7.22453125 -2.91351563 8.1990625 -3.73828125 9.203125 C-5.54442258 11.4366262 -7.29819915 13.68687263 -9 16 C-9.25 10.375 -9.25 10.375 -7 7 C-6.01 7 -5.02 7 -4 7 C-3.8453125 6.1028125 -3.8453125 6.1028125 -3.6875 5.1875 C-2.91123545 2.71756736 -1.92911079 1.67748765 0 0 Z " fill="#DEE5CD" transform="translate(144,164)"/>
<path d="M0 0 C5.50719921 3.90510489 10.35827355 8.09717644 15 13 C14.01 13.33 13.02 13.66 12 14 C12 13.34 12 12.68 12 12 C11.21625 11.731875 10.4325 11.46375 9.625 11.1875 C7 10 7 10 5 7 C4.01 6.67 3.02 6.34 2 6 C0.8125 2.9375 0.8125 2.9375 0 0 Z " fill="#526529" transform="translate(373,105)"/>
<path d="M0 0 C1.32 0.33 2.64 0.66 4 1 C0 5 -4 9 -8 13 C-8.3125 10.8125 -8.3125 10.8125 -8 8 C-5.625 5.1875 -5.625 5.1875 -3 3 C-2.34 3 -1.68 3 -1 3 C-0.67 2.01 -0.34 1.02 0 0 Z " fill="#4E5F24" transform="translate(134,134)"/>
<path d="M0 0 C2.76276177 0.52268466 5.3260876 1.10869587 8 2 C8 2.99 8 3.98 8 5 C9.32 5 10.64 5 12 5 C12.33 6.98 12.66 8.96 13 11 C8.30840284 7.61227103 3.9700218 4.21814817 0 0 Z " fill="#E0E5CD" transform="translate(364,97)"/>
<path d="M0 0 C-2.95419381 2.51072361 -5.11902612 3.43517181 -8.9375 4 C-12.94635613 4.68874621 -15.53085003 5.85728972 -19 8 C-21.1328125 7.58203125 -21.1328125 7.58203125 -23 7 C-4.70345278 -1.50923979 -4.70345278 -1.50923979 0 0 Z " fill="#71804D" transform="translate(188,70)"/>
<path d="M0 0 C1.32 0.33 2.64 0.66 4 1 C0.37 4.63 -3.26 8.26 -7 12 C-7.66 11.01 -8.32 10.02 -9 9 C-8.34 8.34 -7.68 7.68 -7 7 C-6.34 6.29875 -5.68 5.5975 -5 4.875 C-3 3 -3 3 -1 3 C-0.67 2.01 -0.34 1.02 0 0 Z " fill="#D4DFC2" transform="translate(157,150)"/>
<path d="M0 0 C0.33 0.66 0.66 1.32 1 2 C0.01 2.33 -0.98 2.66 -2 3 C-2.33 3.66 -2.66 4.32 -3 5 C-3.66 5 -4.32 5 -5 5 C-4.67 6.65 -4.34 8.3 -4 10 C-4.598125 10.144375 -5.19625 10.28875 -5.8125 10.4375 C-7.56150404 10.8872439 -9.28677023 11.42892341 -11 12 C-9.50441148 7.37727186 -7.31828781 4.47630151 -4 1 C-1.6875 0.125 -1.6875 0.125 0 0 Z " fill="#DFE3D1" transform="translate(127,149)"/>
<path d="M0 0 C4.85967024 2.50346649 8.27856704 6.08552441 12 10 C11.67 10.99 11.34 11.98 11 13 C9.82460004 12.07347299 8.65989423 11.13336613 7.5 10.1875 C6.8503125 9.66542969 6.200625 9.14335937 5.53125 8.60546875 C4 7 4 7 4 4 C3.01 4 2.02 4 1 4 C0.67 2.68 0.34 1.36 0 0 Z " fill="#E0E6CE" transform="translate(356,134)"/>
<path d="M0 0 C0.33 0.99 0.66 1.98 1 3 C0.04422943 4.36538653 -0.96352976 5.69481525 -2 7 C-2.433125 8.2065625 -2.433125 8.2065625 -2.875 9.4375 C-4.30711575 12.69954144 -6.40129721 14.60645795 -9 17 C-8.31066647 13.40865743 -6.82128141 10.5657477 -5.0625 7.375 C-4.53785156 6.41335938 -4.01320313 5.45171875 -3.47265625 4.4609375 C-2 2 -2 2 0 0 Z " fill="#E9EDDB" transform="translate(358,330)"/>
<path d="M0 0 C1.27182008 2.54364016 0.82067275 3.24463053 0.00390625 5.9140625 C-0.33930664 7.05488281 -0.33930664 7.05488281 -0.68945312 8.21875 C-0.93630859 9.0128125 -1.18316406 9.806875 -1.4375 10.625 C-1.68048828 11.42679688 -1.92347656 12.22859375 -2.17382812 13.0546875 C-2.77604073 15.03844668 -3.38718689 17.01948982 -4 19 C-4.66 19 -5.32 19 -6 19 C-5.125 11.375 -5.125 11.375 -4 8 C-3.34 8 -2.68 8 -2 8 C-2 5.69 -2 3.38 -2 1 C-1.34 0.67 -0.68 0.34 0 0 Z " fill="#CCD5B9" transform="translate(121,205)"/>
<path d="M0 0 C0.99 0 1.98 0 3 0 C1.61735163 2.86867231 0.07851447 5.56024032 -1.625 8.25 C-2.07101563 8.95640625 -2.51703125 9.6628125 -2.9765625 10.390625 C-3.48316406 11.18726563 -3.48316406 11.18726563 -4 12 C-5.24386556 8.26840331 -4.77811718 5.81984796 -4 2 C-3.34 1.67 -2.68 1.34 -2 1 C-1.34 1.33 -0.68 1.66 0 2 C0 1.34 0 0.68 0 0 Z " fill="#EBF3DD" transform="translate(88,138)"/>
<path d="M0 0 C1.13199353 0.9080162 2.25532363 1.82683826 3.375 2.75 C4.00148438 3.26046875 4.62796875 3.7709375 5.2734375 4.296875 C7.08312318 6.08199481 8.00117455 7.67949644 9 10 C8.01 10.495 8.01 10.495 7 11 C6.34 10.67 5.68 10.34 5 10 C4.67 10.66 4.34 11.32 4 12 C2 9 2 9 2.375 6.3125 C2.58125 5.549375 2.7875 4.78625 3 4 C2.01 4 1.02 4 0 4 C0 2.68 0 1.36 0 0 Z " fill="#546829" transform="translate(388,119)"/>
<path d="M0 0 C-2.67034273 1.78022849 -4.97600432 2.89126186 -7.9375 4.0625 C-8.79214844 4.40410156 -9.64679688 4.74570313 -10.52734375 5.09765625 C-12.67696324 5.88211455 -14.77025942 6.49817903 -17 7 C-17 6.01 -17 5.02 -17 4 C-12.0251208 0.68341387 -5.96431647 -0.38479461 0 0 Z " fill="#4B6121" transform="translate(203,97)"/>
<path d="M0 0 C5.78461538 4.06153846 5.78461538 4.06153846 6.875 8.8125 C6.91625 9.864375 6.9575 10.91625 7 12 C5.84775972 11.07038578 4.70340824 10.1309875 3.5625 9.1875 C2.92441406 8.66542969 2.28632812 8.14335937 1.62890625 7.60546875 C0 6 0 6 -1 3 C-0.67 2.01 -0.34 1.02 0 0 Z " fill="#485D17" transform="translate(102,376)"/>
<path d="M0 0 C8.89291917 -0.48506832 17.30940593 1.32374305 26 3 C26 3.33 26 3.66 26 4 C23.9377952 4.054348 21.87517184 4.09294961 19.8125 4.125 C18.66394531 4.14820312 17.51539063 4.17140625 16.33203125 4.1953125 C13.03603816 4.00211244 10.98597716 3.31382995 8 2 C5.33427985 1.50686503 2.70184283 1.27476368 0 1 C0 0.67 0 0.34 0 0 Z " fill="#425811" transform="translate(264,61)"/>
<path d="M0 0 C0.33 0 0.66 0 1 0 C1.66 7.92 2.32 15.84 3 24 C2.34 24 1.68 24 1 24 C0.01956036 21.05868109 -0.11621202 19.17498335 -0.09765625 16.11328125 C-0.09443359 15.17548828 -0.09121094 14.23769531 -0.08789062 13.27148438 C-0.07532227 11.80678711 -0.07532227 11.80678711 -0.0625 10.3125 C-0.05798828 9.32443359 -0.05347656 8.33636719 -0.04882812 7.31835938 C-0.03704303 4.87884526 -0.02059011 2.43945311 0 0 Z " fill="#E4EDDB" transform="translate(112,251)"/>
<path d="M0 0 C-0.33 1.65 -0.66 3.3 -1 5 C-3.64 5.33 -6.28 5.66 -9 6 C-9 5.01 -9 4.02 -9 3 C-3.375 0 -3.375 0 0 0 Z " fill="#526627" transform="translate(193,131)"/>
<path d="M0 0 C1.65 0 3.3 0 5 0 C5 0.66 5 1.32 5 2 C6.65 2 8.3 2 10 2 C10 2.66 10 3.32 10 4 C10.639375 4.103125 11.27875 4.20625 11.9375 4.3125 C12.618125 4.539375 13.29875 4.76625 14 5 C14.33 5.99 14.66 6.98 15 8 C9.52067211 6.45454854 4.88570819 3.84456788 0 1 C0 0.67 0 0.34 0 0 Z " fill="#DBDFC7" transform="translate(333,78)"/>
<path d="M0 0 C3.458176 -0.0868329 6.91607344 -0.14033282 10.375 -0.1875 C11.35984375 -0.21263672 12.3446875 -0.23777344 13.359375 -0.26367188 C14.77089844 -0.27817383 14.77089844 -0.27817383 16.2109375 -0.29296875 C17.08024902 -0.3086792 17.94956055 -0.32438965 18.84521484 -0.34057617 C19.55629395 -0.22818604 20.26737305 -0.1157959 21 0 C21.66 0.99 22.32 1.98 23 3 C15.41 2.34 7.82 1.68 0 1 C0 0.67 0 0.34 0 0 Z " fill="#506327" transform="translate(255,91)"/>
<path d="M0 0 C0.66 0.66 1.32 1.32 2 2 C-2.95 4.31 -7.9 6.62 -13 9 C-13 8.01 -13 7.02 -13 6 C-12.39671875 5.73445313 -11.7934375 5.46890625 -11.171875 5.1953125 C-10.37265625 4.84210938 -9.5734375 4.48890625 -8.75 4.125 C-7.96109375 3.77695312 -7.1721875 3.42890625 -6.359375 3.0703125 C-4.21131392 2.09586095 -2.10170798 1.07013571 0 0 Z " fill="#4D5F22" transform="translate(340,422)"/>
<path d="M0 0 C3.68266103 0.59950296 7.34543185 1.24758891 11 2 C11 4.31 11 6.62 11 9 C9.72689688 8.06558465 8.456612 7.12732889 7.1875 6.1875 C6.47980469 5.66542969 5.77210938 5.14335937 5.04296875 4.60546875 C3.21468607 3.16871123 1.60103312 1.68184237 0 0 Z " fill="#53662C" transform="translate(345,124)"/>
<path d="M0 0 C2.6875 -0.0625 2.6875 -0.0625 6 1 C8.05859358 3.81926253 9.5527903 6.83022655 11 10 C8 10 8 10 5.95703125 8.06640625 C5.24933594 7.24011719 4.54164063 6.41382813 3.8125 5.5625 C3.09707031 4.73878906 2.38164062 3.91507813 1.64453125 3.06640625 C0 1 0 1 0 0 Z " fill="#E8EEDB" transform="translate(348,163)"/>
<path d="M0 0 C3.1875 -0.3125 3.1875 -0.3125 7 0 C9.63016161 2.1727422 11.47336894 3.94673788 13 7 C8.50202887 5.31326082 4.27113698 3.18326108 0 1 C0 0.67 0 0.34 0 0 Z " fill="#D8DEC4" transform="translate(307,132)"/>
<path d="M0 0 C0.66 0.33 1.32 0.66 2 1 C1.67 1.99 1.34 2.98 1 4 C0.34 4 -0.32 4 -1 4 C-1 4.66 -1 5.32 -1 6 C-1.99 5.67 -2.98 5.34 -4 5 C-5.485 7.475 -5.485 7.475 -7 10 C-7.66 8.68 -8.32 7.36 -9 6 C-6.03 4.02 -3.06 2.04 0 0 Z " fill="#D8E1CD" transform="translate(162,116)"/>
<path d="M0 0 C1 3 1 3 -0.3984375 5.91796875 C-1.05070312 6.99691406 -1.70296875 8.07585937 -2.375 9.1875 C-3.02210938 10.27417969 -3.66921875 11.36085938 -4.3359375 12.48046875 C-5.15964844 13.72763672 -5.15964844 13.72763672 -6 15 C-6.33 15 -6.66 15 -7 15 C-6.74438677 12.6568787 -6.40729228 10.32156597 -6 8 C-5.34 7.67 -4.68 7.34 -4 7 C-2.88365848 5.34948712 -2.88365848 5.34948712 -1.875 3.4375 C-1.25625 2.303125 -0.6375 1.16875 0 0 Z " fill="#56682F" transform="translate(370,307)"/>
<path d="M0 0 C1 3 1 3 0.3125 5.5625 C-1.16086774 8.29875437 -2.13522966 8.94958421 -5 10 C-5 10.99 -5 11.98 -5 13 C-5.66 13 -6.32 13 -7 13 C-5.35821735 8.22390502 -2.73453298 4.20617096 0 0 Z " fill="#63733B" transform="translate(85,147)"/>
<path d="M0 0 C5.96564796 0.50771472 10.63809899 2.38592128 16 5 C13.47946405 6.26026798 12.1457902 5.91874445 9.375 5.5625 C8.14910156 5.40974609 8.14910156 5.40974609 6.8984375 5.25390625 C5.95871094 5.12822266 5.95871094 5.12822266 5 5 C5 4.01 5 3.02 5 2 C3.35 1.67 1.7 1.34 0 1 C0 0.67 0 0.34 0 0 Z " fill="#879366" transform="translate(286,124)"/>
<path d="M0 0 C4.62 0 9.24 0 14 0 C14.33 1.32 14.66 2.64 15 4 C9.76119922 3.44854729 5.02649303 2.57077907 0 1 C0 0.67 0 0.34 0 0 Z " fill="#5E6E33" transform="translate(279,94)"/>
<path d="M0 0 C0.33 2.31 0.66 4.62 1 7 C0.01 7.495 0.01 7.495 -1 8 C-3.03144641 7.06553465 -5.03533587 6.06775224 -7 5 C-2.25 0 -2.25 0 0 0 Z " fill="#E9EEE0" transform="translate(372,404)"/>
<path d="M0 0 C0.66 0.66 1.32 1.32 2 2 C-0.31 5.96 -2.62 9.92 -5 14 C-6.19156292 9.23374833 -5.3415946 8.12120649 -3 4 C-2.34 4 -1.68 4 -1 4 C-0.67 2.68 -0.34 1.36 0 0 Z " fill="#505F23" transform="translate(419,341)"/>
<path d="M0 0 C0.66 0.33 1.32 0.66 2 1 C-0.475 6.94 -0.475 6.94 -3 13 C-3.33 13 -3.66 13 -4 13 C-4.16494083 4.25813609 -4.16494083 4.25813609 -1.4375 1.3125 C-0.7259375 0.6628125 -0.7259375 0.6628125 0 0 Z " fill="#4C5F21" transform="translate(427,324)"/>
<path d="M0 0 C0.99 0.33 1.98 0.66 3 1 C2.4140625 7.15234375 2.4140625 7.15234375 2 9 C1.01 9.495 1.01 9.495 0 10 C-0.99 7.03 -1.98 4.06 -3 1 C-2.01 1 -1.02 1 0 1 C0 0.67 0 0.34 0 0 Z " fill="#495F1B" transform="translate(399,187)"/>
<path d="M0 0 C-1.60194071 0.98280415 -3.20663742 1.96111717 -4.8125 2.9375 C-6.15248047 3.75541016 -6.15248047 3.75541016 -7.51953125 4.58984375 C-10 6 -10 6 -13 7 C-11.67719033 3.03157099 -10.26626476 1.64936655 -6.5625 -0.25 C-3.78183734 -1.06385249 -2.69945247 -0.80238502 0 0 Z " fill="#E0E6CC" transform="translate(184,135)"/>
<path d="M0 0 C1.21994269 3.65982807 0.49026663 4.58115302 -1 8 C-1 8.66 -1 9.32 -1 10 C-1.99 10.33 -2.98 10.66 -4 11 C-4.66 10.34 -5.32 9.68 -6 9 C-2.25 2.25 -2.25 2.25 0 0 Z " fill="#546525" transform="translate(101,126)"/>
<path d="M0 0 C1.48280196 0.78483659 2.9611498 1.57809334 4.4375 2.375 C5.67306641 3.03628906 5.67306641 3.03628906 6.93359375 3.7109375 C9 5 9 5 10 7 C9.01 7.33 8.02 7.66 7 8 C6.34 7.34 5.68 6.68 5 6 C3.68 6 2.36 6 1 6 C0.67 4.02 0.34 2.04 0 0 Z " fill="#4E6324" transform="translate(348,87)"/>
<path d="M0 0 C0.66 1.32 1.32 2.64 2 4 C0.68 5.32 -0.64 6.64 -2 8 C-2.33 7.34 -2.66 6.68 -3 6 C-4.65 6.66 -6.3 7.32 -8 8 C-5.33333333 5.33333333 -2.66666667 2.66666667 0 0 Z " fill="#4E6021" transform="translate(357,372)"/>
<path d="M0 0 C-1.14206358 1.50287218 -2.28874957 3.00223284 -3.4375 4.5 C-4.39462891 5.75296875 -4.39462891 5.75296875 -5.37109375 7.03125 C-5.90863281 7.6809375 -6.44617188 8.330625 -7 9 C-7.33 9 -7.66 9 -8 9 C-7.5129959 2.54719562 -7.5129959 2.54719562 -5.125 0 C-3 -1 -3 -1 0 0 Z " fill="#E5ECD4" transform="translate(381,346)"/>
<path d="M0 0 C0.66 0 1.32 0 2 0 C2.309375 0.804375 2.61875 1.60875 2.9375 2.4375 C3.76335345 4.89080405 3.76335345 4.89080405 5 6 C5.04092937 8.33297433 5.04241723 10.66705225 5 13 C4.01 13.495 4.01 13.495 3 14 C2.01 9.38 1.02 4.76 0 0 Z " fill="#4C5C1F" transform="translate(403,207)"/>
<path d="M0 0 C3.375 -0.125 3.375 -0.125 7 0 C7.66 0.66 8.32 1.32 9 2 C5.38026598 3.31626692 2.90432869 4 -1 4 C-0.67 2.68 -0.34 1.36 0 0 Z " fill="#E3EDD8" transform="translate(205,121)"/>
<path d="M0 0 C0.33 0.66 0.66 1.32 1 2 C-3.30769231 7.78461538 -3.30769231 7.78461538 -6.8125 8.875 C-7.8953125 8.936875 -7.8953125 8.936875 -9 9 C-8.06725891 7.87105124 -7.12859878 6.74699124 -6.1875 5.625 C-5.66542969 4.99851562 -5.14335938 4.37203125 -4.60546875 3.7265625 C-3 2 -3 2 0 0 Z " fill="#5D6E34" transform="translate(118,109)"/>
<path d="M0 0 C0.66 0 1.32 0 2 0 C3.2890625 1.53125 3.2890625 1.53125 4.625 3.5 C5.07101562 4.1496875 5.51703125 4.799375 5.9765625 5.46875 C6.31429688 5.9740625 6.65203125 6.479375 7 7 C6.34 7.66 5.68 8.32 5 9 C2.69 6.69 0.38 4.38 -2 2 C-1.34 1.34 -0.68 0.68 0 0 Z " fill="#EAEED9" transform="translate(383,110)"/>
<path d="M0 0 C-6.03076923 5.04615385 -6.03076923 5.04615385 -10.9375 4.8125 C-11.948125 4.544375 -12.95875 4.27625 -14 4 C-11.37350692 2.24900461 -9.38191413 1.30690675 -6.4375 0.3125 C-5.65246094 0.04050781 -4.86742187 -0.23148437 -4.05859375 -0.51171875 C-2 -1 -2 -1 0 0 Z " fill="#E8EFD4" transform="translate(318,436)"/>
<path d="M0 0 C1.65 0 3.3 0 5 0 C3.6302836 3.99500618 1.74277578 6.80009492 -1 10 C-1.09978121 6.50765756 -0.77842938 3.40562852 0 0 Z " fill="#E7EDD7" transform="translate(383,333)"/>
<path d="M0 0 C0.99 0.99 1.98 1.98 3 3 C2.01 3.495 2.01 3.495 1 4 C1 4.66 1 5.32 1 6 C0.34 6 -0.32 6 -1 6 C-1.66 7.32 -2.32 8.64 -3 10 C-3.33 9.34 -3.66 8.68 -4 8 C-1.48571429 1.48571429 -1.48571429 1.48571429 0 0 Z " fill="#4B601F" transform="translate(127,195)"/>
<path d="M0 0 C1.46067199 0.45082469 2.91848032 0.91093537 4.375 1.375 C5.18710937 1.63023438 5.99921875 1.88546875 6.8359375 2.1484375 C9 3 9 3 11 5 C9.68 5 8.36 5 7 5 C7 4.34 7 3.68 7 3 C6.34 3.66 5.68 4.32 5 5 C4.34 5.66 3.68 6.32 3 7 C3 6.34 3 5.68 3 5 C2.34 4.67 1.68 4.34 1 4 C1.33 3.34 1.66 2.68 2 2 C1.34 2 0.68 2 0 2 C0 1.34 0 0.68 0 0 Z " fill="#5B6B2A" transform="translate(324,75)"/>
<path d="M0 0 C3.3 0.33 6.6 0.66 10 1 C10.33 1.99 10.66 2.98 11 4 C9.54054712 3.91291331 8.08234132 3.80473093 6.625 3.6875 C5.81289062 3.62949219 5.00078125 3.57148438 4.1640625 3.51171875 C2 3 2 3 0 0 Z " fill="#536328" transform="translate(210,442)"/>
<path d="M0 0 C0 0.33 0 0.66 0 1 C-4.05979772 1.98419339 -7.82699392 2.23183367 -12 2 C-12.99 1.34 -13.98 0.68 -15 0 C-9.62374766 -0.84888195 -5.34629602 -1.0024305 0 0 Z " fill="#4F6123" transform="translate(277,414)"/>
<path d="M0 0 C0.66 0.33 1.32 0.66 2 1 C0.82255415 4.53233755 0.04394359 4.86308075 -3.0625 6.6875 C-3.79597656 7.12449219 -4.52945312 7.56148438 -5.28515625 8.01171875 C-5.85105469 8.33785156 -6.41695313 8.66398437 -7 9 C-6.19095897 4.20719998 -3.74015409 2.86479887 0 0 Z " fill="#4F6520" transform="translate(371,400)"/>
<path d="M0 0 C2.625 -0.1875 2.625 -0.1875 5 0 C4.67 0.99 4.34 1.98 4 3 C5.65 3.99 7.3 4.98 9 6 C8.01 6.495 8.01 6.495 7 7 C4.8359375 6.22265625 4.8359375 6.22265625 2.375 5.0625 C1.55773437 4.68222656 0.74046875 4.30195313 -0.1015625 3.91015625 C-0.72804687 3.60980469 -1.35453125 3.30945313 -2 3 C-1.34 2.01 -0.68 1.02 0 0 Z " fill="#DADFCD" transform="translate(181,397)"/>
<path d="M0 0 C2.64 0 5.28 0 8 0 C8 2.31 8 4.62 8 7 C4.46399535 5.08864614 2.21027154 3.37357234 0 0 Z " fill="#566A2B" transform="translate(155,350)"/>
<path d="M0 0 C0.66 0 1.32 0 2 0 C1.34 5.61 0.68 11.22 0 17 C-0.33 17 -0.66 17 -1 17 C-1.02691685 14.54159395 -1.04679802 12.08348118 -1.0625 9.625 C-1.07087891 8.92632812 -1.07925781 8.22765625 -1.08789062 7.5078125 C-1.11328125 2.2265625 -1.11328125 2.2265625 0 0 Z " fill="#EBF2D9" transform="translate(56,211)"/>
<path d="M0 0 C1.02653826 3.76673312 1.28495693 7.08184221 1 11 C-0.375 12.75 -0.375 12.75 -2 14 C-2.66 14.99 -3.32 15.98 -4 17 C-3.35729017 11.0870696 -1.80996216 5.65755469 0 0 Z " fill="#7B8857" transform="translate(63,192)"/>
<path d="M0 0 C3 2 3 2 3.6875 4.125 C4.08477078 7.77989122 4.06231163 11.32361387 4 15 C1.32820751 10.22894198 0 5.46088946 0 0 Z " fill="#EDF4DD" transform="translate(435,198)"/>
<path d="M0 0 C0.79921875 0.01804688 1.5984375 0.03609375 2.421875 0.0546875 C3.02515625 0.07789063 3.6284375 0.10109375 4.25 0.125 C4.58 1.115 4.91 2.105 5.25 3.125 C-1.68 2.63 -1.68 2.63 -8.75 2.125 C-5.00631258 0.25315629 -3.9099209 -0.11499767 0 0 Z " fill="#EDF3D8" transform="translate(272.75,57.875)"/>
<path d="M0 0 C0.99 0.33 1.98 0.66 3 1 C5.00875442 0.72428861 7.01178687 0.39764263 9 0 C6.65085508 2.34914492 5.04320554 2.73140357 1.875 3.625 C0.50988281 4.01558594 0.50988281 4.01558594 -0.8828125 4.4140625 C-1.58148438 4.60742188 -2.28015625 4.80078125 -3 5 C-3 4.01 -3 3.02 -3 2 C-2.01 1.34 -1.02 0.68 0 0 Z " fill="#4B5E1C" transform="translate(314,432)"/>
<path d="M0 0 C4.29 1.32 8.58 2.64 13 4 C13 4.66 13 5.32 13 6 C11.02 6 9.04 6 7 6 C7 5.34 7 4.68 7 4 C5.824375 3.7834375 5.824375 3.7834375 4.625 3.5625 C2 3 2 3 0 2 C0 1.34 0 0.68 0 0 Z " fill="#4A5C21" transform="translate(189,404)"/>
<path d="M0 0 C0.33 0.99 0.66 1.98 1 3 C0.01 3.33 -0.98 3.66 -2 4 C-2.73323796 6.01508358 -2.73323796 6.01508358 -3 8 C-4.65 8 -6.3 8 -8 8 C-5.58443874 4.80800833 -3.31996462 2.25283313 0 0 Z " fill="#EDF3DA" transform="translate(380,396)"/>
<path d="M0 0 C3.53372712 1.96318174 6.24479785 4.04070881 9 7 C8.01 7.495 8.01 7.495 7 8 C4.64018187 7.06421005 2.30368736 6.06652192 0 5 C0 3.35 0 1.7 0 0 Z " fill="#E5E9DA" transform="translate(159,355)"/>
<path d="M0 0 C1.32 0 2.64 0 4 0 C4 0.66 4 1.32 4 2 C4.66 2.33 5.32 2.66 6 3 C5.67 3.66 5.34 4.32 5 5 C5.66 5 6.32 5 7 5 C6.67 6.32 6.34 7.64 6 9 C4.99712471 7.68969568 3.99777175 6.37669473 3 5.0625 C2.443125 4.33160156 1.88625 3.60070312 1.3125 2.84765625 C0 1 0 1 0 0 Z " fill="#E7EBDA" transform="translate(115,344)"/>
<path d="M0 0 C2.38672669 2.96283313 4.7353371 5.94270509 7 9 C6.67 9.66 6.34 10.32 6 11 C5.01 11 4.02 11 3 11 C3 10.01 3 9.02 3 8 C2.34 8 1.68 8 1 8 C1.33 6.68 1.66 5.36 2 4 C1.34 4 0.68 4 0 4 C0 2.68 0 1.36 0 0 Z " fill="#627135" transform="translate(109,336)"/>
<path d="M0 0 C0.66 0.66 1.32 1.32 2 2 C0.68 5.96 -0.64 9.92 -2 14 C-2.66 14 -3.32 14 -4 14 C-3.21824485 9.15311808 -1.60155722 4.6233633 0 0 Z " fill="#4A5A21" transform="translate(432,309)"/>
<path d="M0 0 C2.61885488 2.36944013 4.41866551 4.83733102 6 8 C5.67 8.99 5.34 9.98 5 11 C3.0625 10 3.0625 10 1 8 C0.33450549 5.30075428 0.18319237 2.79368363 0 0 Z " fill="#DEE4CB" transform="translate(383,165)"/>
<path d="M0 0 C0.53625 0.226875 1.0725 0.45375 1.625 0.6875 C-0.5163437 3.15004526 -2.07370394 4.37800349 -5.375 4.6875 C-6.365 4.0275 -7.355 3.3675 -8.375 2.6875 C-2.95961538 -0.38942308 -2.95961538 -0.38942308 0 0 Z " fill="#D0DBC1" transform="translate(196.375,100.3125)"/>
<path d="M0 0 C0.66 0 1.32 0 2 0 C2.103125 0.639375 2.20625 1.27875 2.3125 1.9375 C2.539375 2.618125 2.76625 3.29875 3 4 C3.99 4.33 4.98 4.66 6 5 C5.67 6.32 5.34 7.64 5 9 C3.02 6.69 1.04 4.38 -1 2 C-0.67 1.34 -0.34 0.68 0 0 Z " fill="#E1E7D6" transform="translate(126,356)"/>
<path d="M0 0 C1.98 1.65 3.96 3.3 6 5 C5.67 5.99 5.34 6.98 5 8 C3.68 7.67 2.36 7.34 1 7 C0.67 4.69 0.34 2.38 0 0 Z " fill="#E6EFDE" transform="translate(148,344)"/>
<path d="M0 0 C0.99 1.32 1.98 2.64 3 4 C1.6875 6 1.6875 6 0 8 C-0.99 8 -1.98 8 -3 8 C-1.125 2.25 -1.125 2.25 0 0 Z " fill="#576929" transform="translate(75,164)"/>
<path d="M0 0 C-0.66 1.32 -1.32 2.64 -2 4 C-2.99 3.67 -3.98 3.34 -5 3 C-6.66621616 2.96125079 -8.33394172 2.9549714 -10 3 C-6.81859267 -0.48439851 -4.56758339 -1.41752588 0 0 Z " fill="#5B7238" transform="translate(208,126)"/>
<path d="M0 0 C0 0.99 0 1.98 0 3 C-3.37362154 5.60250805 -5.76907828 6.36265043 -10 6 C-2.6 0 -2.6 0 0 0 Z " fill="#5B6D36" transform="translate(152,85)"/>
<path d="M0 0 C0.79921875 0.01804687 1.5984375 0.03609375 2.421875 0.0546875 C3.02515625 0.07789063 3.6284375 0.10109375 4.25 0.125 C1.36371599 1.70054035 -1.28342384 2.58776373 -4.5 3.25 C-5.69882812 3.50136719 -5.69882812 3.50136719 -6.921875 3.7578125 C-7.52515625 3.87898438 -8.1284375 4.00015625 -8.75 4.125 C-8.75 3.465 -8.75 2.805 -8.75 2.125 C-5.68753253 0.34090198 -3.52920727 -0.10380021 0 0 Z " fill="#506129" transform="translate(299.75,438.875)"/>
<path d="M0 0 C0.33 0.66 0.66 1.32 1 2 C-0.47169811 5.73584906 -0.47169811 5.73584906 -3 7 C-3.99 8.485 -3.99 8.485 -5 10 C-5 9.34 -5 8.68 -5 8 C-5.66 7.67 -6.32 7.34 -7 7 C-4.69 4.69 -2.38 2.38 0 0 Z " fill="#53682D" transform="translate(365,364)"/>
<path d="M0 0 C0.99 0.33 1.98 0.66 3 1 C3 1.66 3 2.32 3 3 C2.34 3 1.68 3 1 3 C0.731875 3.78375 0.46375 4.5675 0.1875 5.375 C-1 8 -1 8 -4 10 C-3.67 8.35 -3.34 6.7 -3 5 C-2.01 4.67 -1.02 4.34 0 4 C0 2.68 0 1.36 0 0 Z " fill="#52632B" transform="translate(360,322)"/>
<path d="M0 0 C1.32 0.33 2.64 0.66 4 1 C5.25 7.625 5.25 7.625 3 11 C2.49384702 9.73160474 1.99530901 8.46016898 1.5 7.1875 C1.2215625 6.47980469 0.943125 5.77210938 0.65625 5.04296875 C0 3 0 3 0 0 Z " fill="#53662B" transform="translate(64,314)"/>
<path d="M0 0 C0.33 0 0.66 0 1 0 C1.66 5.61 2.32 11.22 3 17 C2.01 16.67 1.02 16.34 0 16 C0 10.72 0 5.44 0 0 Z " fill="#67783B" transform="translate(87,272)"/>
<path d="M0 0 C0.66 0.33 1.32 0.66 2 1 C2 1.99 2 2.98 2 4 C2.66 4.33 3.32 4.66 4 5 C2.69593116 7.01920337 1.36176581 9.01924973 0 11 C-0.33 11 -0.66 11 -1 11 C-1.125 3.375 -1.125 3.375 0 0 Z " fill="#485C1D" transform="translate(119,214)"/>
<path d="M0 0 C2.4375 0.625 2.4375 0.625 5 2 C5.8125 5.125 5.8125 5.125 6 8 C5.01 8.495 5.01 8.495 4 9 C3.67 7.68 3.34 6.36 3 5 C2.34 5 1.68 5 1 5 C0.67 3.35 0.34 1.7 0 0 Z " fill="#DFEAD3" transform="translate(365,186)"/>
<path d="M0 0 C3.73487777 0.4979837 5.81237635 0.87491756 9 3 C9 3.99 9 4.98 9 6 C5.06326356 4.68775452 2.77280706 3.08089673 0 0 Z " fill="#DEE4D0" transform="translate(348,86)"/>
<path d="M0 0 C2.97 0.99 5.94 1.98 9 3 C9 3.66 9 4.32 9 5 C3 5 3 5 1.3125 3.625 C0 2 0 2 0 0 Z " fill="#E6EAD7" transform="translate(197,378)"/>
<path d="M0 0 C1.98 0.99 1.98 0.99 4 2 C4.875 4.9375 4.875 4.9375 5 8 C4.01 9.485 4.01 9.485 3 11 C2.01 7.37 1.02 3.74 0 0 Z " fill="#63753F" transform="translate(60,303)"/>
<path d="M0 0 C2.95183101 2.95183101 3.08663988 5.95511947 4 10 C3.01 10 2.02 10 1 10 C-0.60725635 6.78548731 -0.05748185 3.56387464 0 0 Z " fill="#617239" transform="translate(373,204)"/>
<path d="M0 0 C1.32 0.33 2.64 0.66 4 1 C0.04 4.465 0.04 4.465 -4 8 C-4.33 6.68 -4.66 5.36 -5 4 C-4.01 4 -3.02 4 -2 4 C-2 3.34 -2 2.68 -2 2 C-1.34 2 -0.68 2 0 2 C0 1.34 0 0.68 0 0 Z " fill="#5F6E37" transform="translate(144,126)"/>
<path d="M0 0 C0.66 0.33 1.32 0.66 2 1 C1.01 1.33 0.02 1.66 -1 2 C-1 2.66 -1 3.32 -1 4 C-2.65 4.66 -4.3 5.32 -6 6 C-6.66 5.34 -7.32 4.68 -8 4 C-6.71349294 3.30289269 -5.42059335 2.61757124 -4.125 1.9375 C-3.40570313 1.55464844 -2.68640625 1.17179687 -1.9453125 0.77734375 C-1.30335938 0.52082031 -0.66140625 0.26429687 0 0 Z " fill="#C7D0BA" transform="translate(182,105)"/>
<path d="M0 0 C0.66 0.33 1.32 0.66 2 1 C1.4375 2.875 1.4375 2.875 0 5 C-3.625 6.25 -3.625 6.25 -7 7 C-4.66666667 4.66666667 -2.33333333 2.33333333 0 0 Z " fill="#63723D" transform="translate(133,96)"/>
<path d="M0 0 C0 0.66 0 1.32 0 2 C0.66 2.33 1.32 2.66 2 3 C0.741875 2.87625 -0.51625 2.7525 -1.8125 2.625 C-2.87404297 2.52058594 -2.87404297 2.52058594 -3.95703125 2.4140625 C-6 2 -6 2 -9 0 C-5.93109813 -1.53445094 -3.29905734 -0.54984289 0 0 Z " fill="#DBE2C2" transform="translate(208,407)"/>
<path d="M0 0 C2.96404505 2.80804268 5.44499019 5.18315774 7 9 C6.01 9.495 6.01 9.495 5 10 C5 9.01 5 8.02 5 7 C3.68 7 2.36 7 1 7 C0.67 4.69 0.34 2.38 0 0 Z " fill="#DADEC6" transform="translate(137,330)"/>
<path d="M0 0 C2.3129482 2.3129482 2.49580975 3.47904875 3.125 6.625 C3.29257813 7.44226563 3.46015625 8.25953125 3.6328125 9.1015625 C3.81457031 10.04128906 3.81457031 10.04128906 4 11 C3.34 10.67 2.68 10.34 2 10 C2 9.34 2 8.68 2 8 C1.01 7.67 0.02 7.34 -1 7 C-0.67 4.69 -0.34 2.38 0 0 Z " fill="#C2CFAF" transform="translate(118,289)"/>
<path d="M0 0 C1.32 0.66 2.64 1.32 4 2 C4 3.32 4 4.64 4 6 C2.35 6.66 0.7 7.32 -1 8 C-0.67 5.36 -0.34 2.72 0 0 Z " fill="#4F6117" transform="translate(406,285)"/>
<path d="M0 0 C0.99 0.33 1.98 0.66 3 1 C1.8141763 4.37503669 0.72426311 6.64722731 -2 9 C-2.33 8.01 -2.66 7.02 -3 6 C-2.34 6 -1.68 6 -1 6 C-1.0309375 4.7934375 -1.0309375 4.7934375 -1.0625 3.5625 C-1 1 -1 1 0 0 Z " fill="#D2DAC2" transform="translate(126,190)"/>
<path d="M0 0 C1.15957207 3.47871621 0.77456651 4.34219645 -0.4375 7.6875 C-0.86869141 8.89986328 -0.86869141 8.89986328 -1.30859375 10.13671875 C-1.53675781 10.75160156 -1.76492187 11.36648437 -2 12 C-3.94566951 8.52452927 -4.07637127 6.87493656 -3 3 C-2.34 3 -1.68 3 -1 3 C-0.67 2.01 -0.34 1.02 0 0 Z " fill="#F2F8E2" transform="translate(64,186)"/>
<path d="M0 0 C0.99 0.33 1.98 0.66 3 1 C-0.96 4.465 -0.96 4.465 -5 8 C-5.33 7.01 -5.66 6.02 -6 5 C-5.34 5 -4.68 5 -4 5 C-3.67 3.68 -3.34 2.36 -3 1 C-2.01 1.33 -1.02 1.66 0 2 C0 1.34 0 0.68 0 0 Z " fill="#D5DCC4" transform="translate(168,142)"/>
<path d="M0 0 C-0.33 0.99 -0.66 1.98 -1 3 C-4.63 3 -8.26 3 -12 3 C-9.84267191 0.84267191 -8.88177557 0.51705175 -6 -0.1875 C-5.29875 -0.36667969 -4.5975 -0.54585938 -3.875 -0.73046875 C-2 -1 -2 -1 0 0 Z " fill="#4F6220" transform="translate(173,77)"/>
<path d="M0 0 C1.49080078 0.02707031 1.49080078 0.02707031 3.01171875 0.0546875 C3.77097656 0.07789063 4.53023437 0.10109375 5.3125 0.125 C5.3125 0.455 5.3125 0.785 5.3125 1.125 C3.73163952 1.49004603 2.14766093 1.84160506 0.5625 2.1875 C-0.31921875 2.38472656 -1.2009375 2.58195312 -2.109375 2.78515625 C-4.67429028 3.12325872 -6.25841639 2.93658635 -8.6875 2.125 C-5.26655758 -0.15562828 -4.00562778 -0.09425007 0 0 Z " fill="#EDF3D7" transform="translate(210.6875,60.875)"/>
<path d="M0 0 C-1 3 -1 3 -3.75 4.625 C-6.56668945 5.81667631 -8.99043417 6.55741679 -12 7 C-3.55172414 0 -3.55172414 0 0 0 Z " fill="#DEE6CB" transform="translate(357,415)"/>
<path d="M0 0 C1.98 0.66 3.96 1.32 6 2 C6 2.33 6 2.66 6 3 C1.23692563 3.95261487 -3.1666528 4.08333357 -8 4 C-8 3.67 -8 3.34 -8 3 C-6.865625 2.690625 -5.73125 2.38125 -4.5625 2.0625 C-1.21224901 1.37075469 -1.21224901 1.37075469 0 0 Z " fill="#E5ECD2" transform="translate(270,410)"/>
<path d="M0 0 C3.0831351 1.19899698 6.06279492 2.47700477 9 4 C9 4.66 9 5.32 9 6 C7.68 5.67 6.36 5.34 5 5 C4.67 5.66 4.34 6.32 4 7 C3.67 6.01 3.34 5.02 3 4 C2.01979625 2.9805881 1.02196992 1.97753644 0 1 C0 0.67 0 0.34 0 0 Z " fill="#546729" transform="translate(172,396)"/>
<path d="M0 0 C1.65 0 3.3 0 5 0 C5.33 0.99 5.66 1.98 6 3 C6.66 3.66 7.32 4.32 8 5 C7.01 5.495 7.01 5.495 6 6 C3.97945196 4.35830472 1.97956942 2.69088222 0 1 C0 0.67 0 0.34 0 0 Z " fill="#516527" transform="translate(117,396)"/>
<path d="M0 0 C1 2 1 2 0.4375 4 C-1.57302108 6.79724672 -3.74418077 7.15065585 -7 8 C-6.02133662 6.85373678 -5.04205413 5.70800212 -4.0625 4.5625 C-3.51722656 3.92441406 -2.97195313 3.28632813 -2.41015625 2.62890625 C-1.63204305 1.73008851 -0.84063472 0.84063472 0 0 Z " fill="#ECF5DB" transform="translate(388,388)"/>
<path d="M0 0 C2.61500768 2.36595933 4.38999603 4.86049226 6 8 C5.67 8.66 5.34 9.32 5 10 C3.0625 8.9375 3.0625 8.9375 1 7 C0.25 3.3125 0.25 3.3125 0 0 Z " fill="#D1D8BA" transform="translate(77,346)"/>
<path d="M0 0 C0.33 1.32 0.66 2.64 1 4 C1.66 4 2.32 4 3 4 C2.67 4.99 2.34 5.98 2 7 C2 6.34 2 5.68 2 5 C1.34 5 0.68 5 0 5 C0 5.99 0 6.98 0 8 C-0.99 8 -1.98 8 -3 8 C-1.125 2.25 -1.125 2.25 0 0 Z " fill="#EBF0D7" transform="translate(424,335)"/>
<path d="M0 0 C0.33 0.99 0.66 1.98 1 3 C-0.9375 6.1875 -0.9375 6.1875 -3 9 C-3.66 8.67 -4.32 8.34 -5 8 C-1.125 1.125 -1.125 1.125 0 0 Z " fill="#5B6A35" transform="translate(135,180)"/>
<path d="M0 0 C0.66 0.33 1.32 0.66 2 1 C0.35 2.98 -1.3 4.96 -3 7 C-4.32 6.67 -5.64 6.34 -7 6 C-5.01180815 3.01771223 -3.42353587 1.21480305 0 0 Z " fill="#EEF1DE" transform="translate(145,130)"/>
<path d="M0 0 C0.99 0.66 1.98 1.32 3 2 C0.6875 4.0625 0.6875 4.0625 -2 6 C-2.99 5.67 -3.98 5.34 -5 5 C-5 4.34 -5 3.68 -5 3 C-4.01 3 -3.02 3 -2 3 C-2 2.34 -2 1.68 -2 1 C-1.34 0.67 -0.68 0.34 0 0 Z " fill="#4B5C21" transform="translate(151,120)"/>
<path d="M0 0 C4.62 1.32 9.24 2.64 14 4 C14 4.33 14 4.66 14 5 C12.22844346 4.88570603 10.45773771 4.75816963 8.6875 4.625 C7.70136719 4.55539063 6.71523438 4.48578125 5.69921875 4.4140625 C3 4 3 4 0 2 C0 1.34 0 0.68 0 0 Z " fill="#E6E9D1" transform="translate(298,100)"/>
<path d="M0 0 C0 0.66 0 1.32 0 2 C-1.62626404 3.38232443 -3.2925002 4.71937515 -5 6 C-6.32 5.34 -7.64 4.68 -9 4 C-2.25 0 -2.25 0 0 0 Z " fill="#5F6F33" transform="translate(161,80)"/>
<path d="M0 0 C2.31 0.66 4.62 1.32 7 2 C7 2.99 7 3.98 7 5 C1.25 3.25 1.25 3.25 -1 1 C-0.67 0.67 -0.34 0.34 0 0 Z " fill="#516227" transform="translate(159,424)"/>
<path d="M0 0 C0.33 0.66 0.66 1.32 1 2 C0.195625 2.61875 -0.60875 3.2375 -1.4375 3.875 C-4.03874519 5.74164041 -4.03874519 5.74164041 -5 8 C-6.32 7.34 -7.64 6.68 -9 6 C-6.03 4.02 -3.06 2.04 0 0 Z " fill="#526527" transform="translate(341,385)"/>
<path d="M0 0 C2.96404505 2.80804268 5.44499019 5.18315774 7 9 C4.69 8.01 2.38 7.02 0 6 C0 4.02 0 2.04 0 0 Z " fill="#CCD6B9" transform="translate(95,373)"/>
<path d="M0 0 C1.32 0.33 2.64 0.66 4 1 C1.03 3.475 1.03 3.475 -2 6 C-2.33 4.68 -2.66 3.36 -3 2 C-2.01 2 -1.02 2 0 2 C0 1.34 0 0.68 0 0 Z " fill="#E0E7CC" transform="translate(353,372)"/>
<path d="M0 0 C0.33 0.66 0.66 1.32 1 2 C0.06553465 4.03144641 -0.93224776 6.03533587 -2 8 C-3.32 7.67 -4.64 7.34 -6 7 C-4.02 4.69 -2.04 2.38 0 0 Z " fill="#53632B" transform="translate(372,356)"/>
<path d="M0 0 C0.66 0 1.32 0 2 0 C0.6302836 3.99500618 -1.25722422 6.80009492 -4 10 C-3.47731534 7.23723823 -2.89130413 4.6739124 -2 2 C-1.34 2 -0.68 2 0 2 C0 1.34 0 0.68 0 0 Z " fill="#54652B" transform="translate(411,355)"/>
<path d="M0 0 C0.33 0 0.66 0 1 0 C1.390625 5.859375 1.390625 5.859375 1 8 C-0.32 9.32 -1.64 10.64 -3 12 C-2.01 8.04 -1.02 4.08 0 0 Z " fill="#D7DFC3" transform="translate(435,304)"/>
<path d="M0 0 C1.98 0 3.96 0 6 0 C6.33 1.32 6.66 2.64 7 4 C6.401875 3.814375 5.80375 3.62875 5.1875 3.4375 C2.83591238 2.77906313 2.83591238 2.77906313 0 4 C0 2.68 0 1.36 0 0 Z " fill="#EEEEE7" transform="translate(384,175)"/>
<path d="M0 0 C1.48280196 0.78483659 2.9611498 1.57809334 4.4375 2.375 C5.67306641 3.03628906 5.67306641 3.03628906 6.93359375 3.7109375 C9 5 9 5 10 7 C6.5625 6.1875 6.5625 6.1875 3 5 C2.67 4.01 2.34 3.02 2 2 C1.34 2 0.68 2 0 2 C0 1.34 0 0.68 0 0 Z " fill="#536225" transform="translate(320,140)"/>
<path d="M0 0 C0.99 0.33 1.98 0.66 3 1 C-1.455 3.97 -1.455 3.97 -6 7 C-5.67 5.68 -5.34 4.36 -5 3 C-3.35 2.67 -1.7 2.34 0 2 C0 1.34 0 0.68 0 0 Z " fill="#E8F1DD" transform="translate(137,91)"/>
<path d="M0 0 C2.31 0 4.62 0 7 0 C6.67 0.99 6.34 1.98 6 3 C4.02 3 2.04 3 0 3 C0 2.01 0 1.02 0 0 Z " fill="#3E5611" transform="translate(220,85)"/>
<path d="M0 0 C1.98 0 3.96 0 6 0 C5.67 0.99 5.34 1.98 5 3 C6.32 3.66 7.64 4.32 9 5 C4.98525763 5 3.18024863 3.33218233 0 1 C0 0.67 0 0.34 0 0 Z " fill="#566627" transform="translate(134,410)"/>
<path d="M0 0 C1.98 0 3.96 0 6 0 C6.66 1.98 7.32 3.96 8 6 C1.125 2.25 1.125 2.25 0 0 Z " fill="#566227" transform="translate(126,404)"/>
<path d="M0 0 C1.98 0 3.96 0 6 0 C6 1.98 6 3.96 6 6 C3.97945196 4.35830472 1.97956942 2.69088222 0 1 C0 0.67 0 0.34 0 0 Z " fill="#475C1C" transform="translate(109,388)"/>
<path d="M0 0 C0 3 0 3 -1 6 C-3.0625 7.6875 -3.0625 7.6875 -5 9 C-5.66 8.67 -6.32 8.34 -7 8 C-4.69 5.36 -2.38 2.72 0 0 Z " fill="#E2EACA" transform="translate(396,379)"/>
<path d="M0 0 C0 0.66 0 1.32 0 2 C0.66 2 1.32 2 2 2 C2.33 3.32 2.66 4.64 3 6 C-0.37503669 4.8141763 -2.64722731 3.72426311 -5 1 C-2 0 -2 0 0 0 Z " fill="#D3D8C2" transform="translate(161,385)"/>
<path d="M0 0 C0.66 0 1.32 0 2 0 C2 0.66 2 1.32 2 2 C2.639375 2.28875 3.27875 2.5775 3.9375 2.875 C6 4 6 4 7 6 C6.34 6.66 5.68 7.32 5 8 C4.16382818 6.8562364 3.33113541 5.70992861 2.5 4.5625 C2.0359375 3.92441406 1.571875 3.28632813 1.09375 2.62890625 C0 1 0 1 0 0 Z " fill="#4B5F20" transform="translate(90,365)"/>
<path d="M0 0 C2.45823172 3.68734758 3.01242616 6.69699971 4 11 C2 9.4375 2 9.4375 0 7 C-0.25 3.25 -0.25 3.25 0 0 Z " fill="#E7EDD3" transform="translate(61,308)"/>
<path d="M0 0 C2.2344598 4.03292745 2.54496743 7.44967434 3 12 C0.89366282 10.29171079 0.06198392 9.47851584 -0.29296875 6.73828125 C-0.25816406 5.93777344 -0.22335937 5.13726562 -0.1875 4.3125 C-0.16042969 3.50425781 -0.13335937 2.69601563 -0.10546875 1.86328125 C-0.07066406 1.24839844 -0.03585937 0.63351563 0 0 Z " fill="#6C7A4C" transform="translate(377,215)"/>
<path d="M0 0 C1 3 1 3 0 6 C-2.5625 7.6875 -2.5625 7.6875 -5 9 C-3.7508258 5.54074837 -2.32472205 2.85306797 0 0 Z " fill="#D2DDC2" transform="translate(115,161)"/>
<path d="M0 0 C2.97 0.495 2.97 0.495 6 1 C4.71034824 2.37562854 3.37310707 3.70766393 2 5 C1.34 5 0.68 5 0 5 C0 3.35 0 1.7 0 0 Z " fill="#465815" transform="translate(283,124)"/>
<path d="M0 0 C2.0625 0.4375 2.0625 0.4375 4 1 C3.34 2.65 2.68 4.3 2 6 C0 5 0 5 -0.6875 3 C-0.790625 2.34 -0.89375 1.68 -1 1 C-0.67 0.67 -0.34 0.34 0 0 Z " fill="#E2E5DD" transform="translate(151,123)"/>
<path d="M0 0 C2.97 1.65 5.94 3.3 9 5 C6 6 6 6 3.375 4.75 C1 3 1 3 0 0 Z " fill="#E9EED7" transform="translate(140,415)"/>
<path d="M0 0 C0.33 0.99 0.66 1.98 1 3 C-0.32 3.33 -1.64 3.66 -3 4 C-3 4.66 -3 5.32 -3 6 C-4.32 5.67 -5.64 5.34 -7 5 C-4.69 3.35 -2.38 1.7 0 0 Z " fill="#E8F0DC" transform="translate(364,409)"/>
<path d="M0 0 C0.33 0 0.66 0 1 0 C1 2.64 1 5.28 1 8 C-0.65 8 -2.3 8 -4 8 C-4 7.34 -4 6.68 -4 6 C-3.01 5.67 -2.02 5.34 -1 5 C-0.67 3.35 -0.34 1.7 0 0 Z " fill="#F0F6E4" transform="translate(280,404)"/>
<path d="M0 0 C3.96 1.98 3.96 1.98 8 4 C8 4.33 8 4.66 8 5 C5.69 4.67 3.38 4.34 1 4 C0.67 2.68 0.34 1.36 0 0 Z " fill="#4B5D1A" transform="translate(156,387)"/>
<path d="M0 0 C0.66 0 1.32 0 2 0 C2.625 1.8125 2.625 1.8125 3 4 C2.01 5.485 2.01 5.485 1 7 C0.01 7 -0.98 7 -2 7 C-1.67 5.68 -1.34 4.36 -1 3 C-0.34 3 0.32 3 1 3 C0.67 2.01 0.34 1.02 0 0 Z " fill="#F6F3FA" transform="translate(215,381)"/>
<path d="M0 0 C1.98 0.66 3.96 1.32 6 2 C5.67 2.99 5.34 3.98 5 5 C3.02 4.34 1.04 3.68 -1 3 C-0.67 2.01 -0.34 1.02 0 0 Z " fill="#EBF1DC" transform="translate(208,382)"/>
<path d="M0 0 C2.64752004 2.57784846 4.94432065 4.91648098 7 8 C5.35 7.67 3.7 7.34 2 7 C1.34 4.69 0.68 2.38 0 0 Z " fill="#586B35" transform="translate(124,357)"/>
<path d="M0 0 C0.33 0 0.66 0 1 0 C0.67 2.97 0.34 5.94 0 9 C-0.99 9.33 -1.98 9.66 -3 10 C-2.01 6.7 -1.02 3.4 0 0 Z " fill="#E3E9D1" transform="translate(428,325)"/>
<path d="M0 0 C0.33 0 0.66 0 1 0 C1.125 7.75 1.125 7.75 0 10 C-0.66 10 -1.32 10 -2 10 C-1.34 6.7 -0.68 3.4 0 0 Z " fill="#596A35" transform="translate(404,294)"/>
<path d="M0 0 C1.53166168 4.08443115 0.63081652 7.79455657 0 12 C-0.33 12 -0.66 12 -1 12 C-1.33 8.7 -1.66 5.4 -2 2 C-1.34 2 -0.68 2 0 2 C0 1.34 0 0.68 0 0 Z " fill="#D0D9BB" transform="translate(115,225)"/>
<path d="M0 0 C0.33 0.66 0.66 1.32 1 2 C1.66 2 2.32 2 3 2 C3.33 3.98 3.66 5.96 4 8 C3.01 8.495 3.01 8.495 2 9 C1.01 6.36 0.02 3.72 -1 1 C-0.67 0.67 -0.34 0.34 0 0 Z " fill="#E7F0D3" transform="translate(426,172)"/>
<path d="M0 0 C2 2 2 2 2 5 C0.02 5.33 -1.96 5.66 -4 6 C-1.125 1.125 -1.125 1.125 0 0 Z " fill="#526625" transform="translate(142,170)"/>
<path d="M0 0 C1.32 0 2.64 0 4 0 C4 0.99 4 1.98 4 3 C4.66 3 5.32 3 6 3 C6.33 4.65 6.66 6.3 7 8 C4.35247996 5.42215154 2.05567935 3.08351902 0 0 Z " fill="#EAF1D8" transform="translate(389,119)"/>
<path d="M0 0 C2.29633824 3.44450737 2.54016485 5.93812283 3 10 C0.51280729 7.08025204 -0.58572305 4.83206182 -1 1 C-0.67 0.67 -0.34 0.34 0 0 Z " fill="#D8DFC5" transform="translate(96,304)"/>
<path d="M0 0 C2.76223278 2.76223278 2.57856291 5.20706617 3 9 C2.67 8.34 2.34 7.68 2 7 C1.34 7 0.68 7 0 7 C-1.125 2.25 -1.125 2.25 0 0 Z " fill="#DDE5C6" transform="translate(399,197)"/>
<path d="M0 0 C2 3 2 3 1.625 5.6875 C1.41875 6.450625 1.2125 7.21375 1 8 C0.01 8 -0.98 8 -2 8 C-1.34 5.36 -0.68 2.72 0 0 Z " fill="#D6DBC6" transform="translate(101,184)"/>
<path d="M0 0 C0.66 0 1.32 0 2 0 C2.28875 0.61875 2.5775 1.2375 2.875 1.875 C3.93720042 4.13325765 3.93720042 4.13325765 6 6 C5.01 6.66 4.02 7.32 3 8 C0 2.25 0 2.25 0 0 Z " fill="#E2E9D2" transform="translate(418,158)"/>
<path d="M0 0 C0.66 0.33 1.32 0.66 2 1 C0.02 3.97 0.02 3.97 -2 7 C-2.66 6.01 -3.32 5.02 -4 4 C-2.68 2.68 -1.36 1.36 0 0 Z " fill="#526224" transform="translate(117,155)"/>
<path d="M0 0 C1.65 0.33 3.3 0.66 5 1 C5 2.32 5 3.64 5 5 C2.525 4.01 2.525 4.01 0 3 C0 2.01 0 1.02 0 0 Z " fill="#DAE0C5" transform="translate(321,138)"/>
<path d="M0 0 C2.3125 -0.3125 2.3125 -0.3125 5 0 C6.8125 2.5 6.8125 2.5 8 5 C4.62496331 3.8141763 2.35277269 2.72426311 0 0 Z " fill="#667643" transform="translate(335,117)"/>
</svg>
